<?xml version="1.0" encoding="iso-8859-1"?>
<!-- Generator: Adobe Illustrator 19.0.0, SVG Export Plug-In . SVG Version: 6.00 Build 0)  -->
<svg version="1.1" id="Capa_1" xmlns="http://www.w3.org/2000/svg" xmlns:xlink="http://www.w3.org/1999/xlink" x="0px" y="0px"
	 viewBox="0 0 512 512" style="enable-background:new 0 0 512 512;" xml:space="preserve">
<g>
	<g>
		<path d="M504.5,78.5H464V36c0-4.142-3.357-7.5-7.5-7.5H7.5C3.358,28.5,0,31.858,0,36v322.667c0,4.142,3.358,7.5,7.5,7.5
			s7.5-3.358,7.5-7.5V93.5h434v73.083c0,4.142,3.357,7.5,7.5,7.5s7.5-3.358,7.5-7.5V143.5h33v325h-49.5c-4.143,0-7.5,3.358-7.5,7.5
			c0,4.142,3.357,7.5,7.5,7.5h57c4.143,0,7.5-3.358,7.5-7.5V86C512,81.858,508.643,78.5,504.5,78.5z M112,78.5H15v-35h97V78.5z
			 M449,78.5H127v-35h322V78.5z M497,128.5h-33v-35h33V128.5z"/>
	</g>
</g>
<g>
	<g>
		<path d="M456.5,191.5c-4.143,0-7.5,3.358-7.5,7.5v219.5H15V391c0-4.142-3.358-7.5-7.5-7.5S0,386.858,0,391v35
			c0,4.142,3.358,7.5,7.5,7.5H48V476c0,4.142,3.358,7.5,7.5,7.5h360.542c4.143,0,7.5-3.358,7.5-7.5c0-4.142-3.357-7.5-7.5-7.5H63
			v-35h393.5c4.143,0,7.5-3.358,7.5-7.5V199C464,194.858,460.643,191.5,456.5,191.5z"/>
	</g>
</g>
<g>
	<g>
		<path d="M307,325.167H147c-15.164,0-27.5,12.336-27.5,27.5v20c0,15.164,12.336,27.5,27.5,27.5h160c15.163,0,27.5-12.336,27.5-27.5
			v-20C334.5,337.503,322.163,325.167,307,325.167z M319.5,372.667c0,6.893-5.607,12.5-12.5,12.5H147c-6.893,0-12.5-5.607-12.5-12.5
			v-20c0-6.893,5.607-12.5,12.5-12.5h160c6.893,0,12.5,5.607,12.5,12.5V372.667z"/>
	</g>
</g>
<g>
	<g>
		<circle cx="36.5" cy="61" r="7.5"/>
	</g>
</g>
<g>
	<g>
		<circle cx="92.5" cy="61" r="7.5"/>
	</g>
</g>
<g>
	<g>
		<circle cx="64.5" cy="61" r="7.5"/>
	</g>
</g>
<g>
	<g>
		<path d="M179.387,278.543l-47.143-131.999c-1.064-2.979-3.883-4.971-7.047-4.978c-0.005,0-0.01,0-0.016,0
			c-3.157,0-5.978,1.978-7.052,4.948c-0.118,0.326-11.919,32.936-23.571,65.345c-23.999,66.752-24.003,67.306-24.019,69.142
			c-0.037,4.142,3.292,7.529,7.434,7.565c0.022,0,0.044,0,0.067,0c3.603,0,6.622-2.546,7.338-5.948
			c0.804-2.715,6.424-18.597,13.993-39.754h51.346l14.544,40.724c1.095,3.067,3.983,4.979,7.063,4.979
			c0.837,0,1.689-0.141,2.522-0.439C178.747,286.735,180.78,282.443,179.387,278.543z M104.746,227.865
			c6.457-17.994,13.704-38.104,20.392-56.621l20.222,56.621H104.746z"/>
	</g>
</g>
<g>
	<g>
		<path d="M198.039,141.567h-2.572c-4.142,0-7.5,3.358-7.5,7.5v132c0,4.142,3.358,7.5,7.5,7.5h2.572c40.528,0,73.5-32.972,73.5-73.5
			C271.539,174.539,238.567,141.567,198.039,141.567z M202.967,273.36V156.772c29.959,2.511,53.571,27.697,53.571,58.294
			C256.538,245.663,232.926,270.85,202.967,273.36z"/>
	</g>
</g>
<g>
	<g>
		<path d="M336.854,204.995h-15.816c-12.17,0-22.071-9.901-22.071-22.071v-4.286c0-12.17,9.901-22.071,22.071-22.071h9.429
			c12.17,0,22.071,9.901,22.071,22.071c0,4.142,3.357,7.5,7.5,7.5s7.5-3.358,7.5-7.5c0-20.441-16.63-37.071-37.071-37.071h-9.429
			c-20.441,0-37.071,16.63-37.071,37.071v4.286c0,20.441,16.63,37.071,37.071,37.071h15.816c8.648,0,15.684,7.036,15.684,15.684
			v15.816c0,12.17-9.901,22.072-22.071,22.072h-9.429c-12.17,0-22.071-9.901-22.071-22.072v-4.714c0-4.142-3.358-7.5-7.5-7.5
			c-4.143,0-7.5,3.358-7.5,7.5v4.714c0,20.441,16.63,37.072,37.071,37.072h9.429c20.441,0,37.071-16.63,37.071-37.072v-15.816
			C367.538,218.76,353.773,204.995,336.854,204.995z"/>
	</g>
</g>
<g>
</g>
<g>
</g>
<g>
</g>
<g>
</g>
<g>
</g>
<g>
</g>
<g>
</g>
<g>
</g>
<g>
</g>
<g>
</g>
<g>
</g>
<g>
</g>
<g>
</g>
<g>
</g>
<g>
</g>
</svg>
