<?xml version="1.0" encoding="iso-8859-1"?>
<!-- Generator: Adobe Illustrator 19.0.0, SVG Export Plug-In . SVG Version: 6.00 Build 0)  -->
<svg version="1.1" id="Capa_1" xmlns="http://www.w3.org/2000/svg" xmlns:xlink="http://www.w3.org/1999/xlink" x="0px" y="0px"
	 viewBox="0 0 512 512" style="enable-background:new 0 0 512 512;" xml:space="preserve">
<g>
	<g>
		<path d="M376.618,87.966H112.566c-4.142,0-7.5,3.357-7.5,7.5s3.358,7.5,7.5,7.5h264.053c4.143,0,7.5-3.357,7.5-7.5
			S380.761,87.966,376.618,87.966z"/>
	</g>
</g>
<g>
	<g>
		<path d="M483.954,197.389c-15.464,0-28.045,12.581-28.045,28.046c0,6.202,2.028,11.939,5.45,16.588l-23.976,30.474l0.001-203.004
			c0-8.714-6.382-18.027-19.502-18.027H77.554H19.501C8.678,51.465,0,58.038,0,70.966v370.067c0,10.753,8.749,19.501,19.501,19.501
			h189.991c4.142,0,7.5-3.357,7.5-7.5s-3.358-7.5-7.5-7.5H19.501c-2.439,0-4.5-2.061-4.5-4.5V139.47h407.382v152.091l-26.987,34.299
			c-3.659-1.753-7.754-2.737-12.076-2.737c-6.516,0-12.517,2.24-17.283,5.983l-37.35-29.605c1.787-3.688,2.791-7.824,2.791-12.191
			c0-15.464-12.581-28.045-28.046-28.045c-15.464,0-28.045,12.581-28.045,28.045c0,4.975,1.308,9.65,3.59,13.705l-40.778,36.785
			c-4.267-2.626-9.287-4.144-14.654-4.144c-15.464,0-28.045,12.581-28.045,28.045c0,15.465,12.581,28.046,28.045,28.046
			c15.464,0,28.045-12.581,28.045-28.046c0-4.658-1.148-9.051-3.166-12.921l41.138-37.109c4.094,2.34,8.827,3.685,13.871,3.685
			c5.655,0,10.921-1.688,15.33-4.578l38.357,30.403c-1.187,3.104-1.844,6.469-1.844,9.987c0,15.464,12.581,28.045,28.045,28.045
			c15.464,0,28.045-12.581,28.045-28.045c0-5.7-1.714-11.006-4.647-15.437l15.665-19.909v125.211c0,2.439-2.061,4.5-4.5,4.5h-173.39
			c-4.142,0-7.5,3.357-7.5,7.5c0,4.143,3.358,7.5,7.5,7.5h173.39c10.753,0,19.501-8.749,19.501-19.501V296.757l35.758-45.448
			c3.329,1.396,6.982,2.17,10.813,2.17c15.465,0,28.046-12.581,28.046-28.045C512,209.97,499.419,197.389,483.954,197.389z
			 M70.053,124.47H15.001V70.965c0-2.439,2.061-4.5,4.5-4.5h50.552V124.47z M223.546,374.748c-7.192,0-13.044-5.852-13.044-13.045
			s5.851-13.044,13.044-13.044s13.044,5.851,13.044,13.044C236.589,368.895,230.739,374.748,223.546,374.748z M303.433,300.357
			c-7.192,0-13.044-5.852-13.044-13.045c0-7.193,5.851-13.044,13.044-13.044c7.192,0,13.045,5.851,13.045,13.044
			C316.478,294.505,310.626,300.357,303.433,300.357z M383.32,364.213c-7.192,0-13.044-5.851-13.044-13.044
			c0-7.192,5.851-13.044,13.044-13.044c7.192,0,13.044,5.851,13.044,13.044C396.364,358.362,390.514,364.213,383.32,364.213z
			 M422.383,124.47H85.054V66.465h332.828c2.439,0,4.5,2.061,4.5,4.5V124.47z M483.954,238.478c-7.192,0-13.044-5.851-13.044-13.044
			s5.851-13.045,13.044-13.045c7.192,0,13.045,5.852,13.045,13.045S491.148,238.478,483.954,238.478z"/>
	</g>
</g>
<g>
	<g>
		<path d="M171.095,255.83H65.382c-4.142,0-7.5,3.357-7.5,7.5c0,4.143,3.358,7.5,7.5,7.5h105.713c4.142,0,7.5-3.357,7.5-7.5
			S175.239,255.83,171.095,255.83z"/>
	</g>
</g>
<g>
	<g>
		<path d="M171.095,292.396H65.382c-4.142,0-7.5,3.357-7.5,7.5s3.358,7.5,7.5,7.5h105.713c4.142,0,7.5-3.357,7.5-7.5
			S175.239,292.396,171.095,292.396z"/>
	</g>
</g>
<g>
	<g>
		<path d="M171.095,328.963H65.382c-4.142,0-7.5,3.357-7.5,7.5s3.358,7.5,7.5,7.5h105.713c4.142,0,7.5-3.357,7.5-7.5
			S175.239,328.963,171.095,328.963z"/>
	</g>
</g>
<g>
	<g>
		<path d="M171.095,365.528H65.382c-4.142,0-7.5,3.357-7.5,7.5c0,4.143,3.358,7.5,7.5,7.5h105.713c4.142,0,7.5-3.357,7.5-7.5
			C178.596,368.885,175.239,365.528,171.095,365.528z"/>
	</g>
</g>
<g>
	<g>
		<path d="M171.095,402.095H65.382c-4.142,0-7.5,3.357-7.5,7.5s3.358,7.5,7.5,7.5h105.713c4.142,0,7.5-3.357,7.5-7.5
			S175.239,402.095,171.095,402.095z"/>
	</g>
</g>
<g>
	<g>
		<path d="M360.001,163.771H77.383c-10.753,0-19.501,8.749-19.501,19.501v30.723c0,10.753,8.748,19.501,19.501,19.501h132.108
			c4.143,0,7.501-3.358,7.501-7.5c0-4.143-3.358-7.5-7.5-7.5H77.384c-2.439,0-4.5-2.061-4.5-4.5v-30.723c0-2.439,2.061-4.5,4.5-4.5
			h282.618c2.439,0,4.5,2.061,4.5,4.5v30.723c0,2.439-2.061,4.5-4.5,4.5H244.493c-4.142,0-7.5,3.357-7.5,7.5s3.358,7.5,7.5,7.5
			h115.508c10.753,0,19.501-8.749,19.501-19.501v-30.723C379.502,172.519,370.753,163.771,360.001,163.771z"/>
	</g>
</g>
<g>
</g>
<g>
</g>
<g>
</g>
<g>
</g>
<g>
</g>
<g>
</g>
<g>
</g>
<g>
</g>
<g>
</g>
<g>
</g>
<g>
</g>
<g>
</g>
<g>
</g>
<g>
</g>
<g>
</g>
</svg>
