<?xml version="1.0" encoding="iso-8859-1"?>
<!-- Generator: Adobe Illustrator 18.0.0, SVG Export Plug-In . SVG Version: 6.00 Build 0)  -->
<!DOCTYPE svg PUBLIC "-//W3C//DTD SVG 1.1//EN" "http://www.w3.org/Graphics/SVG/1.1/DTD/svg11.dtd">
<svg version="1.1" id="Capa_1" xmlns="http://www.w3.org/2000/svg" xmlns:xlink="http://www.w3.org/1999/xlink" x="0px" y="0px"
	 viewBox="0 0 53.345 53.345" style="enable-background:new 0 0 53.345 53.345;" xml:space="preserve">
<path d="M53.256,16.661c-0.777-8.567-6.838-14.78-14.424-14.78c-4.601,0-8.965,2.296-11.675,6.143
	c-0.211,0.3-0.48,0.346-0.626,0.346c-0.152,0.01-0.416-0.043-0.627-0.352c-2.671-3.9-6.823-6.137-11.393-6.137
	c-7.586,0-13.646,6.213-14.424,14.78c-0.061,0.373-0.313,2.362,0.454,5.615c1.106,4.688,3.66,8.949,7.386,12.324l18.585,16.866
	L45.416,34.6c0.956-0.866,1.833-1.793,2.63-2.768c0.015-0.015,0.023-0.033,0.037-0.049c2.289-2.813,3.902-6.043,4.72-9.507
	C53.57,19.023,53.317,17.034,53.256,16.661z M26.525,48.775L9.271,33.117c-0.356-0.322-0.692-0.658-1.024-0.997h3.099
	c0.393,0,0.748-0.229,0.91-0.586l4.031-8.868l5.13,12.826c0.144,0.358,0.48,0.602,0.865,0.626c0.021,0.001,0.043,0.002,0.063,0.002
	c0.361,0,0.697-0.196,0.874-0.514l4.156-7.481l2.11,3.545c0.212,0.354,0.622,0.545,1.023,0.475c0.406-0.067,0.729-0.377,0.814-0.781
	l2.882-13.716l2.152,13.628c0.076,0.486,0.495,0.844,0.987,0.844h7.753c-0.331,0.338-0.666,0.672-1.02,0.993L26.525,48.775z
	 M50.855,21.817c-0.709,3.007-2.086,5.819-4.016,8.303h-8.638l-2.867-18.156c-0.075-0.477-0.479-0.832-0.962-0.844
	c-0.515-0.035-0.904,0.322-1.004,0.794l-3.474,16.53l-1.688-2.836c-0.184-0.307-0.481-0.475-0.874-0.488
	c-0.358,0.005-0.686,0.202-0.859,0.514l-3.979,7.162l-5.219-13.047c-0.149-0.372-0.505-0.619-0.905-0.628
	c-0.385-0.029-0.769,0.221-0.934,0.586L10.703,30.12H6.507c-1.931-2.485-3.308-5.297-4.017-8.305
	c-0.729-3.083-0.43-4.827-0.428-4.838l0.015-0.101C2.746,9.345,7.976,3.88,14.512,3.88c3.899,0,7.45,1.92,9.742,5.267
	c0.527,0.771,1.351,1.216,2.259,1.222c0.895-0.016,1.739-0.429,2.279-1.193c2.336-3.315,6.09-5.295,10.04-5.295
	c6.536,0,11.767,5.466,12.448,13.092C51.285,16.99,51.584,18.733,50.855,21.817z"/>
<g>
</g>
<g>
</g>
<g>
</g>
<g>
</g>
<g>
</g>
<g>
</g>
<g>
</g>
<g>
</g>
<g>
</g>
<g>
</g>
<g>
</g>
<g>
</g>
<g>
</g>
<g>
</g>
<g>
</g>
</svg>
