<svg height="512pt" viewBox="-12 0 511 512" width="512pt" xmlns="http://www.w3.org/2000/svg"><path d="m32.234375 411.410156v93.089844c0 4.140625 3.359375 7.5 7.5 7.5h409.222656c4.140625 0 7.5-3.359375 7.5-7.5v-93.089844c7.226563-.796875 13.660157-5.066406 17.15625-11.5625 0 0 11.914063-22.136718 11.921875-22.148437 5.753906-10.691407 1.613282-24.410157-9.050781-30.152344l-102.375-55.105469v-5.707031c9.515625 4.117187 20.933594 1.011719 27.039063-7.359375l14.609374-20.023438c7.292969-9.996093 5.09375-24.0625-4.902343-31.359374l-141.613281-103.3125v-33.695313h23.628906c8.417968 0 15.265625-6.847656 15.265625-15.265625v-19.257812c0-8.417969-6.847657-15.265626-15.265625-15.265626h-23.628906v-25.929687c0-8.417969-6.847657-15.265625-15.265626-15.265625h-19.261718c-8.417969 0-15.265625 6.847656-15.265625 15.265625v25.929687h-23.632813c-8.414062 0-15.265625 6.847657-15.265625 15.265626v19.257812c0 8.417969 6.847657 15.265625 15.265625 15.265625h23.632813v33.691406l-78.128907 57c-3.347656 2.441407-4.082031 7.132813-1.640624 10.480469 2.441406 3.347656 7.132812 4.078125 10.480468 1.640625 0 0 82.480469-60.179687 82.492188-60.1875 6.882812-5.019531 16.496094-5.023437 23.382812 0l145.976563 106.5c3.316406 2.417969 4.046875 7.082031 1.625 10.398437l-14.605469 20.023438c-2.390625 3.277344-7.125 4.019531-10.398438 1.625 0 0-7.601562-5.542969-7.605468-5.546875l-28.511719-20.800781c-3.347656-2.441406-8.039063-1.710938-10.480469 1.636718-2.410156 3.304688-1.664062 8.070313 1.640625 10.480469l25.433594 18.554688v220.519531h-61.207031v-68.105469c0-29.53125-24.027344-53.558593-53.558594-53.558593s-53.554688 24.027343-53.554688 53.558593v68.105469h-61.207031v-220.515625l114.761719-83.726563s65.0625 47.464844 65.160156 47.535157c3.257813 2.375 8.105469 1.609375 10.476563-1.640625 2.441406-3.34375 1.710937-8.039063-1.636719-10.476563l-69.578125-50.761719c-2.632813-1.921874-6.207031-1.921874-8.839844 0 0 0-129.855469 94.738282-129.867187 94.746094-3.28125 2.394532-8.011719 1.644532-10.398438-1.628906l-14.609375-20.019531c-2.417969-3.316407-1.6875-7.980469 1.625-10.402344l38.953125-28.417969c3.347656-2.441406 4.082032-7.132812 1.640625-10.476562-2.441406-3.347656-7.132812-4.082032-10.480469-1.640625l-38.953124 28.417969c-9.996094 7.292968-12.195313 21.359374-4.902344 31.359374 0 0 14.601562 20.011719 14.609375 20.019532 6.097656 8.359375 17.535156 11.5 27.039062 7.371094v5.699218l-102.375 55.105469c-10.808593 5.820313-14.867187 19.34375-9.050781 30.152344l11.921875 22.148437c3.496094 6.496094 9.929687 10.765625 17.15625 11.5625zm163.585937-335.425781c-.148437 0-.265624-.117187-.265624-.265625v-19.257812c0-.148438.117187-.265626.265624-.265626h31.128907c4.144531 0 7.5-3.359374 7.5-7.5v-33.429687c0-.148437.121093-.265625.265625-.265625h19.261718c.144532 0 .265626.117188.265626.265625v33.429687c0 4.140626 3.359374 7.5 7.5 7.5h31.132812c.144531 0 .261719.117188.261719.265626v19.257812c0 .148438-.117188.265625-.261719.265625h-31.132812c-4.140626 0-7.5 3.359375-7.5 7.5v32.738281c-.84375-.25-1.710938-.457031-2.570313-.644531-4.832031-1.046875-9.828125-1.046875-14.660156 0-.863281.1875-1.714844.394531-2.5625.644531v-32.738281c0-4.140625-3.355469-7.5-7.5-7.5zm245.636719 421.015625h-67.347656v-125.433594l67.347656 36.25zm27.917969-136.242188c3.480469 1.871094 4.824219 6.351563 2.949219 9.832032 0 0-11.886719 22.089844-11.921875 22.148437-1.84375 3.425781-6.402344 4.796875-9.832032 2.949219l-76.460937-41.15625v-45.054688s95.148437 51.214844 95.265625 51.28125zm-263.585938 68.136719c0-21.261719 17.296876-38.558593 38.554688-38.558593 21.261719 0 38.558594 17.296874 38.558594 38.558593v68.105469h-77.113282zm-158.554687-21.078125 67.347656-36.25v125.433594h-67.347656zm-27.917969-47.058594 95.265625-51.28125v45.054688l-76.460937 41.15625c-3.421875 1.84375-7.996094.464844-9.832032-2.953125l-11.925781-22.144531c-1.894531-3.523438-.570312-7.9375 2.953125-9.832032zm0 0"/><path d="m244.34375 236.859375c-18.933594 0-34.335938 15.402344-34.335938 34.335937v35.460938c-6.742187 1.730469-11.742187 7.835938-11.742187 15.109375v18.425781c0 8.613282 7.003906 15.617188 15.617187 15.617188h60.925782c8.609375 0 15.617187-7.003906 15.617187-15.617188v-18.425781c0-7.273437-5.003906-13.378906-11.742187-15.109375v-35.460938c0-18.933593-15.40625-34.335937-34.339844-34.335937zm0 15c10.664062 0 19.339844 8.675781 19.339844 19.335937v34.953126h-38.675782v-34.953126c0-10.660156 8.675782-19.335937 19.335938-19.335937zm31.082031 88.332031c0 .339844-.277343.617188-.617187.617188h-60.925782c-.339843 0-.617187-.277344-.617187-.617188v-18.425781c0-.339844.277344-.617187.617187-.617187h60.925782c.339844 0 .617187.277343.617187.617187zm0 0"/></svg>