<?xml version="1.0" encoding="iso-8859-1"?>
<!-- Generator: Adobe Illustrator 19.0.0, SVG Export Plug-In . SVG Version: 6.00 Build 0)  -->
<svg version="1.1" id="Capa_1" xmlns="http://www.w3.org/2000/svg" xmlns:xlink="http://www.w3.org/1999/xlink" x="0px" y="0px"
	 viewBox="0 0 511.999 511.999" style="enable-background:new 0 0 511.999 511.999;" xml:space="preserve">
<g>
	<g>
		<path d="M255.998,163.491c-42.784,0-77.591,34.807-77.591,77.591s34.807,77.591,77.591,77.591s77.591-34.807,77.591-77.591
			C333.589,198.298,298.782,163.491,255.998,163.491z M263.499,178.957c28.118,3.375,51.138,25.581,54.624,54.624h-54.624V178.957z
			 M255.998,303.671c-34.512,0-62.59-28.078-62.59-62.59c0-31.972,24.103-58.405,55.089-62.125v60.012
			c0,5.3,4.313,9.613,9.613,9.613h60.012C314.403,279.569,287.97,303.671,255.998,303.671z"/>
	</g>
</g>
<g>
	<g>
		<path d="M352.411,339.461H193.228c-4.142,0-7.5,3.357-7.5,7.5s3.358,7.5,7.5,7.5h159.184c4.143,0,7.5-3.357,7.5-7.5
			S356.555,339.461,352.411,339.461z"/>
	</g>
</g>
<g>
	<g>
		<path d="M352.411,374.921H193.228c-4.142,0-7.5,3.357-7.5,7.5c0,4.143,3.358,7.5,7.5,7.5h159.184c4.143,0,7.5-3.357,7.5-7.5
			C359.912,378.278,356.555,374.921,352.411,374.921z"/>
	</g>
</g>
<g>
	<g>
		<path d="M352.411,410.382H193.228c-4.142,0-7.5,3.357-7.5,7.5c0,4.143,3.358,7.5,7.5,7.5h159.184c4.143,0,7.5-3.357,7.5-7.5
			C359.912,413.739,356.555,410.382,352.411,410.382z"/>
	</g>
</g>
<g>
	<g>
		<path d="M161.571,339.611c-0.96-0.2-1.96-0.2-2.93,0c-3.352,0.627-6.03,3.669-6.03,7.35c0,4.135,3.355,7.5,7.5,7.5
			c4.161,0,7.5-3.405,7.5-7.5C167.611,343.358,165.012,340.255,161.571,339.611z"/>
	</g>
</g>
<g>
	<g>
		<path d="M161.571,375.073c-0.96-0.2-1.96-0.2-2.93,0c-3.265,0.611-6.03,3.59-6.03,7.35c0,4.087,3.321,7.5,7.5,7.5
			c4.249,0,7.5-3.477,7.5-7.5C167.611,378.714,164.908,375.697,161.571,375.073z"/>
	</g>
</g>
<g>
	<g>
		<path d="M161.581,410.525c-4.537-0.912-8.971,2.549-8.971,7.359c0,4.197,3.439,7.5,7.5,7.5c4.204,0,7.5-3.441,7.5-7.5
			C167.611,414.574,165.381,411.331,161.581,410.525z"/>
	</g>
</g>
<g>
	<g>
		<path d="M438.441,285.487c-4.143,0-7.5,3.357-7.5,7.5v184.351c0,10.841-8.819,19.659-19.659,19.659H100.716
			c-10.84,0-19.659-8.819-19.659-19.659V90.474c0-10.841,8.82-19.659,19.659-19.659h63.536v4.177c0,0.003,0,0.006,0,0.01v0.061
			c0,10.753,8.749,19.501,19.501,19.501h0.07h2.747v13.361h-67.455c-7.006,0-12.707,5.7-12.707,12.707v338.109
			c0,7.006,5.7,12.707,12.707,12.707h120.134c4.143,0,7.5-3.357,7.5-7.5s-3.357-7.5-7.5-7.5h-117.84V122.924h65.161v11.814
			c0,9.125,7.423,16.549,16.549,16.549h105.757c9.126,0,16.549-7.424,16.549-16.549v-11.814h65.16v333.521H274.252
			c-4.143,0-7.5,3.357-7.5,7.5s3.357,7.5,7.5,7.5h118.629c7.006,0,12.706-5.7,12.706-12.707V120.63
			c0-7.006-5.699-12.707-12.706-12.707h-67.455V94.563h2.746h0.07c10.753,0,19.501-8.749,19.501-19.501v-0.07v-4.177h63.536
			c10.841,0,19.659,8.819,19.659,19.659v167.513c0.001,4.142,3.358,7.5,7.501,7.5c4.143,0,7.5-3.357,7.5-7.5V90.474
			c0-19.111-15.549-34.66-34.66-34.66h-63.536v-4.546c0-10.753-8.749-19.501-19.501-19.501h-40.845V19.571
			C287.397,8.78,278.618,0,267.826,0h-23.654c-10.792,0-19.571,8.78-19.571,19.571v12.194h-40.845
			c-10.753,0-19.501,8.748-19.501,19.501v4.546h-63.536c-19.111,0-34.66,15.549-34.66,34.66v386.866
			c0,19.111,15.549,34.66,34.66,34.66h310.563c19.111,0,34.66-15.549,34.66-34.66V292.988
			C445.941,288.844,442.584,285.487,438.441,285.487z M310.425,134.737c0,0.854-0.694,1.548-1.548,1.548H203.119
			c-0.854,0-1.548-0.694-1.548-1.548v-11.814h108.854V134.737z M310.425,107.924L310.425,107.924H201.571V94.563h108.854V107.924z
			 M244.171,15.001h23.654c2.478,0,4.57,2.093,4.57,4.57v12.194h-32.795V19.571h0C239.6,17.093,241.694,15.001,244.171,15.001z
			 M179.253,51.267c0-2.439,2.061-4.5,4.5-4.5c6.394,0,138.155,0,144.488,0c2.439,0,4.5,2.061,4.5,4.5c0,8.861,0,15.287,0,23.724
			c0,2.478-2.093,4.57-4.57,4.57c-3.122,0-139.773,0-144.348,0c-2.476,0-4.567-2.09-4.57-4.566V51.267z"/>
	</g>
</g>
<g>
</g>
<g>
</g>
<g>
</g>
<g>
</g>
<g>
</g>
<g>
</g>
<g>
</g>
<g>
</g>
<g>
</g>
<g>
</g>
<g>
</g>
<g>
</g>
<g>
</g>
<g>
</g>
<g>
</g>
</svg>
