<?xml version="1.0" encoding="iso-8859-1"?>
<!-- Generator: Adobe Illustrator 19.0.0, SVG Export Plug-In . SVG Version: 6.00 Build 0)  -->
<svg version="1.1" id="Capa_1" xmlns="http://www.w3.org/2000/svg" xmlns:xlink="http://www.w3.org/1999/xlink" x="0px" y="0px"
	 viewBox="0 0 512 512" style="enable-background:new 0 0 512 512;" xml:space="preserve">
<g>
	<g>
		<g>
			<path d="M466.835,412.099c-1.6-1.6-3.771-2.499-6.035-2.499h-59.733V68.267c-0.015-14.132-11.468-25.585-25.6-25.6h-62.108
				c-3.025-5.262-8.623-8.513-14.692-8.533h-34.992C259.618,14.268,242.142,0,221.867,0c-20.276,0-37.751,14.268-41.808,34.133
				h-34.992c-6.069,0.02-11.668,3.272-14.692,8.533H68.267c-14.132,0.015-25.585,11.468-25.6,25.6V486.4
				c0.015,14.132,11.468,25.585,25.6,25.6h307.2c14.132-0.015,25.585-11.468,25.6-25.6v-8.533h8.533
				c32.974-0.039,59.695-26.759,59.733-59.733C469.334,415.87,468.435,413.699,466.835,412.099z M315.733,59.733h59.733
				c4.711,0.005,8.529,3.822,8.533,8.533V409.6h-17.067V93.867c-0.011-9.421-7.646-17.056-17.067-17.067h-34.133V59.733z
				 M145.067,51.2h42.667c2.263,0.001,4.434-0.898,6.035-2.499c1.6-1.6,2.499-3.771,2.499-6.035c0-14.138,11.461-25.6,25.6-25.6
				c14.139,0,25.6,11.462,25.6,25.6c-0.001,2.263,0.898,4.434,2.499,6.035c1.6,1.6,3.771,2.499,6.035,2.499l42.667,0.025v34.108
				h-153.6V51.2z M145.067,102.4h153.6c6.069-0.02,11.668-3.272,14.692-8.533h36.508V409.6H213.333V384
				c-0.011-9.421-7.645-17.056-17.067-17.067H128c-9.421,0.011-17.056,7.646-17.067,17.067v34.133
				c0.004,15.639,6.145,30.651,17.103,41.808c-19.866-4.065-34.141-21.531-34.17-41.808V93.867h36.508
				C133.399,99.128,138.998,102.38,145.067,102.4z M196.267,384v25.6h-8.533c-2.263-0.001-4.434,0.898-6.035,2.499
				c-1.6,1.6-2.499,3.771-2.499,6.035c-0.031,16.889-10.018,32.172-25.474,38.981c-15.601-6.677-25.721-22.011-25.726-38.981V384
				H196.267z M384,486.4c-0.005,4.711-3.822,8.529-8.533,8.533h-307.2c-4.711-0.005-8.529-3.822-8.533-8.533V68.267
				c0.005-4.711,3.822-8.529,8.533-8.533H128V76.8H93.867c-9.421,0.011-17.056,7.646-17.067,17.067v324.267
				c0.038,32.974,26.759,59.695,59.733,59.733H384V486.4z M409.6,460.8H178.257c9.373-9.162,15.464-21.159,17.328-34.133h255.823
				C447.327,446.518,429.866,460.773,409.6,460.8z"/>
			<path d="M128,230.4h68.267c9.421-0.011,17.056-7.646,17.067-17.067v-42.208l30.121-18.825c2.584-1.615,4.11-4.486,4.004-7.532
				c-0.107-3.046-1.83-5.803-4.521-7.233c-2.691-1.43-5.94-1.317-8.525,0.299l-21.079,13.172v-5.939
				c-0.011-9.421-7.645-17.056-17.067-17.067H128c-9.421,0.011-17.056,7.645-17.067,17.067v68.267
				C110.944,222.754,118.579,230.389,128,230.4z M128,145.067h68.267l0.003,16.604L171.9,176.9l-12.267-12.266
				c-3.341-3.281-8.701-3.256-12.012,0.054s-3.335,8.671-0.054,12.012l17.067,17.067c2.808,2.812,7.187,3.31,10.554,1.2
				l21.086-13.179l0.005,31.546H128V145.067z"/>
			<path d="M238.933,179.2c-0.001,2.263,0.898,4.434,2.499,6.035c1.6,1.6,3.771,2.499,6.035,2.499h76.8
				c4.713,0,8.533-3.82,8.533-8.533s-3.82-8.533-8.533-8.533h-76.8c-2.263-0.001-4.434,0.898-6.035,2.499
				C239.832,174.766,238.933,176.937,238.933,179.2z"/>
			<path d="M128,349.867h68.267c9.421-0.011,17.056-7.646,17.067-17.067v-42.208l30.121-18.825c2.584-1.615,4.11-4.486,4.004-7.532
				c-0.107-3.046-1.83-5.803-4.521-7.233c-2.691-1.43-5.94-1.317-8.525,0.299l-21.079,13.173v-5.939
				c-0.011-9.421-7.645-17.056-17.067-17.067H128c-9.421,0.011-17.056,7.646-17.067,17.067V332.8
				C110.944,342.221,118.579,349.856,128,349.867z M128,264.533h68.267l0.003,16.604l-24.37,15.229L159.633,284.1
				c-3.341-3.281-8.701-3.256-12.012,0.054s-3.335,8.671-0.054,12.012l17.067,17.067c2.808,2.812,7.187,3.31,10.554,1.2
				l21.086-13.179l0.005,31.546H128V264.533z"/>
			<path d="M324.267,290.133h-76.8c-4.713,0-8.533,3.82-8.533,8.533s3.82,8.533,8.533,8.533h76.8c4.713,0,8.533-3.82,8.533-8.533
				S328.979,290.133,324.267,290.133z"/>
		</g>
	</g>
</g>
<g>
</g>
<g>
</g>
<g>
</g>
<g>
</g>
<g>
</g>
<g>
</g>
<g>
</g>
<g>
</g>
<g>
</g>
<g>
</g>
<g>
</g>
<g>
</g>
<g>
</g>
<g>
</g>
<g>
</g>
</svg>
