<?xml version="1.0" encoding="iso-8859-1"?>
<!-- Generator: Adobe Illustrator 19.0.0, SVG Export Plug-In . SVG Version: 6.00 Build 0)  -->
<svg version="1.1" id="Capa_1" xmlns="http://www.w3.org/2000/svg" xmlns:xlink="http://www.w3.org/1999/xlink" x="0px" y="0px"
	 viewBox="0 0 512 512" style="enable-background:new 0 0 512 512;" xml:space="preserve">
<g>
	<g>
		<path d="M238.782,145.377v-15.528c2.137,0.172,3.898,0.565,6.484,1.809c1.776,0.856,5.121,3.183,7.499-0.845
			c1.149-1.955,1.921-5.072-0.441-7.039c-3.376-2.803-9.305-3.674-13.543-3.674v-2.315c0-1.316-1.624-2.228-2.999-2.228
			c-1.497,0-3,0.91-3,2.205v2.471c-10.347,1.365-17.116,6.947-17.116,17.204c0,10.774,7.976,14.244,17.116,17.733v17.558
			c-4.639-0.56-6.848-2.353-11.294-5.69c-2.178-1.631-4.328-1.041-5.955,1.241c-2.045,2.879-1.82,5.39-0.044,7.784
			c3.407,4.592,10.751,7.119,17.293,7.119v2.494c0,1.273,1.448,2.227,3,2.227c1.363,0,2.999-0.898,2.999-2.206v-2.734
			c9.282-1.435,16.675-7.319,16.675-18.704C255.457,153.544,248.714,148.984,238.782,145.377z M233.488,143.435
			c-5.309-2.12-7.059-3.837-7.059-7.146c0-3.839,3.25-5.575,7.059-6.176V143.435z M238.076,172.638v-15.351
			c5.497,2.408,6.617,5.025,6.617,8.116C244.694,169.488,242.045,171.798,238.076,172.638z"/>
	</g>
</g>
<g>
	<g>
		<path d="M355.135,45.552c-33.222,0-60.251,27.028-60.251,60.252c0,33.222,27.028,60.251,60.251,60.251
			c33.222,0,60.251-27.028,60.251-60.251C415.386,72.581,388.357,45.552,355.135,45.552z M355.135,151.054
			c-24.951,0-45.25-20.299-45.25-45.25s20.299-45.251,45.25-45.251c24.951,0,45.25,20.3,45.25,45.251
			S380.086,151.054,355.135,151.054z"/>
	</g>
</g>
<g>
	<g>
		<path d="M432.322,115.997c-4.033-0.93-8.063,1.584-8.995,5.62c-7.368,31.909-35.41,54.195-68.192,54.195
			c-25.229,0-48.485-13.565-60.948-35.638c-1.323-7.2-3.918-13.96-7.562-20.026c-9.141-43.406,24.197-84.355,68.51-84.355
			c32.783,0,60.825,22.286,68.192,54.195c0.932,4.035,4.96,6.549,8.995,5.62c4.036-0.932,6.552-4.959,5.62-8.995
			c-4.253-18.419-14.741-35.128-29.533-47.047c-15.024-12.107-33.944-18.774-53.274-18.774c-36.514,0-67.719,23.144-79.732,55.529
			c-12.378-6.729-26.183-10.252-40.459-10.252c-46.874,0-85.01,38.136-85.01,85.01c0,46.874,38.135,85.011,85.01,85.011
			c36.11,0,67.579-22.384,79.738-55.536c12.037,6.54,25.819,10.257,40.453,10.257c19.331,0,38.251-6.667,53.274-18.774
			c14.793-11.921,25.28-28.628,29.533-47.047C438.875,120.957,436.359,116.93,432.322,115.997z M279.786,145.093
			c0.261,1.961,0.409,3.957,0.409,5.989c0,24.951-20.299,45.25-45.25,45.25s-45.25-20.299-45.25-45.25s20.299-45.25,45.25-45.25
			c15.664,0,29.491,8.002,37.617,20.132C274.115,132.326,276.493,138.806,279.786,145.093z M234.947,221.091
			c-38.604,0-70.009-31.405-70.009-70.009s31.403-70.009,70.007-70.009c12.969,0,25.467,3.525,36.433,10.236
			c-0.568,3.273-1.032,7.624-1.174,10.961c-9.92-7.186-22.099-11.439-35.258-11.439c-33.222,0-60.251,27.028-60.251,60.251
			s27.028,60.251,60.251,60.251c28.616,0,52.619-20.06,58.731-46.851c2.524,2.647,5.223,5.148,8.099,7.471
			C292.736,201.115,265.908,221.091,234.947,221.091z"/>
	</g>
</g>
<g>
	<g>
		<path d="M358.972,100.097V84.569c3.247,0.261,4.922,1.009,8.558,2.823c1.789,0.899,4.004,0.548,5.426-1.859
			c1.149-1.955,1.921-5.072-0.441-7.039c-3.374-2.801-9.191-3.674-13.543-3.674v-2.315c0-1.316-1.624-2.228-2.999-2.228
			c-1.497,0-3,0.91-3,2.205v2.471c-10.347,1.365-17.116,6.947-17.116,17.204c0,11.106,8.584,14.476,17.116,17.733v17.558
			c-4.821-0.582-7.157-2.585-11.294-5.69c-4.141-3.101-7.41,2.38-7.41,5.266c0,1.238,0.47,2.491,1.411,3.76
			c3.441,4.638,10.904,7.119,17.293,7.119v2.494c0,1.273,1.448,2.227,3,2.227c1.363,0,2.999-0.898,2.999-2.206v-2.734
			c9.282-1.435,16.675-7.319,16.675-18.704C375.647,107.986,368.517,103.564,358.972,100.097z M353.679,98.156
			c-5.309-2.12-7.059-3.837-7.059-7.146c0-3.839,3.25-5.575,7.059-6.176V98.156z M358.266,127.359v-15.352
			c5.497,2.408,6.617,5.025,6.617,8.116C364.883,124.209,362.235,126.519,358.266,127.359z"/>
	</g>
</g>
<g>
	<g>
		<path d="M501.003,200.295c-0.057-0.057-0.115-0.112-0.174-0.166c-18.637-17.17-40.328-9.209-54.412,3.963l-80.105,66.429
			c-4.47-9.833-14.081-19.667-32.292-19.667c-74.617,0-84.66-1.344-102.421,5.416c-0.066,0.025-0.133,0.052-0.198,0.079
			l-50.829,21.021l-0.707-1.876c-3.291-8.732-13.02-13.138-21.756-9.843l-38.555,14.529c-0.006,0.002-0.011,0.003-0.017,0.005
			c-16.959,6.389-70.562,26.587-107.783,40.618c-9.384,3.531-14.119,13.983-10.582,23.369l50.98,135.283
			c3.536,9.389,13.992,14.113,23.371,10.579c11.554-4.353,88.989-33.534,105.935-39.921c0.011-0.004,0.022-0.007,0.033-0.011
			l40.387-15.222c8.733-3.288,13.146-13.018,9.852-21.755l-0.661-1.754c26.501-11.253,27.106-12.592,54.671-12.712
			c4.142-0.019,7.485-3.391,7.467-7.533c-0.019-4.131-3.372-7.467-7.499-7.467c-0.012,0-0.022,0-0.034,0
			c-29.94,0.131-32.598,2.05-59.899,13.664l-39.911-105.91l51.17-21.161c14.758-5.596,23.564-4.398,96.985-4.398
			c8.155,0,13.826,2.804,17.334,8.572c2.467,4.057,3.082,8.328,3.206,9.445c-0.221,2.95-1.968,16.626-15.426,18.91
			c-20.549,3.489-64.867,9.834-65.312,9.897c-4.101,0.587-6.949,4.387-6.363,8.486c0.535,3.741,3.743,6.439,7.415,6.439
			c0.354,0,0.712-0.025,1.071-0.076c0.447-0.064,44.957-6.437,65.7-9.958c19.001-3.226,26.048-19.425,27.594-29.993l86.822-71.989
			c0.087-0.072,0.173-0.146,0.257-0.223l0.344-0.319c8.632-8.072,21.515-15.298,33.914-3.968
			c14.025,13.898,1.143,30.439-1.81,33.855c-3.461,3.719-109.59,117.745-109.59,117.745c-0.055,0.059-0.108,0.119-0.162,0.18
			c-15.357,17.607-36.133,20.525-44.539,20.952c-4.916,0-9.478-0.011-13.742-0.025c-0.009,0-0.018,0-0.026,0
			c-4.13,0-7.485,3.342-7.499,7.475c-0.014,4.143,3.332,7.512,7.475,7.525c4.333,0.015,8.973,0.025,13.979,0.025
			c0.119,0,0.238-0.003,0.358-0.009c10.197-0.487,35.971-3.995,55.219-25.99c109.63-117.788,109.631-117.789,109.681-117.844
			c0.025-0.029,0.052-0.059,0.078-0.089C509.692,243.761,520.81,219.755,501.003,200.295z M70.235,475.997
			c-1.634,0.616-3.438-0.217-4.045-1.83L15.21,338.883c-0.61-1.622,0.204-3.43,1.832-4.043c32.152-12.12,76.523-28.84,98.945-37.288
			l53.193,141.157C144.032,448.188,80.604,472.09,70.235,475.997z M217.693,418.418c0.366,0.968-0.112,2.053-1.103,2.425
			l-33.37,12.578c-2.396-6.359-49.977-132.625-53.192-141.156l33.372-12.576c0.001-0.001,0.001-0.001,0.002-0.001
			c0.987-0.371,2.064,0.13,2.428,1.097C168.922,288.992,215.943,413.774,217.693,418.418z"/>
	</g>
</g>
<g>
</g>
<g>
</g>
<g>
</g>
<g>
</g>
<g>
</g>
<g>
</g>
<g>
</g>
<g>
</g>
<g>
</g>
<g>
</g>
<g>
</g>
<g>
</g>
<g>
</g>
<g>
</g>
<g>
</g>
</svg>
