<?xml version="1.0" encoding="iso-8859-1"?>
<!-- Generator: Adobe Illustrator 19.0.0, SVG Export Plug-In . SVG Version: 6.00 Build 0)  -->
<svg version="1.1" id="Capa_1" xmlns="http://www.w3.org/2000/svg" xmlns:xlink="http://www.w3.org/1999/xlink" x="0px" y="0px"
	 viewBox="0 0 512.001 512.001" style="enable-background:new 0 0 512.001 512.001;" xml:space="preserve">
<g>
	<g>
		<path d="M86.448,452.773h-9.894c-4.142,0-7.5,3.357-7.5,7.5s3.358,7.5,7.5,7.5h9.894c4.142,0,7.5-3.357,7.5-7.5
			S90.591,452.773,86.448,452.773z"/>
	</g>
</g>
<g>
	<g>
		<path d="M86.448,253.368h-9.894c-4.142,0-7.5,3.357-7.5,7.5s3.358,7.5,7.5,7.5h9.894c4.142,0,7.5-3.357,7.5-7.5
			S90.591,253.368,86.448,253.368z"/>
	</g>
</g>
<g>
	<g>
		<path d="M417.615,233.383h-82.769c-4.143,0-7.5,3.357-7.5,7.5s3.357,7.5,7.5,7.5h82.769c4.143,0,7.5-3.357,7.5-7.5
			S421.758,233.383,417.615,233.383z"/>
	</g>
</g>
<g>
	<g>
		<path d="M417.615,272.294h-82.769c-4.143,0-7.5,3.357-7.5,7.5s3.357,7.5,7.5,7.5h82.769c4.143,0,7.5-3.357,7.5-7.5
			S421.758,272.294,417.615,272.294z"/>
	</g>
</g>
<g>
	<g>
		<path d="M417.615,311.206h-82.769c-4.143,0-7.5,3.357-7.5,7.5s3.357,7.5,7.5,7.5h82.769c4.143,0,7.5-3.357,7.5-7.5
			S421.758,311.206,417.615,311.206z"/>
	</g>
</g>
<g>
	<g>
		<path d="M415.81,149.833H298.783c-4.143,0-7.5,3.358-7.5,7.5s3.357,7.5,7.5,7.5h117.028c2.439,0,4.5,2.061,4.5,4.5v17.357
			c0,2.439-2.061,4.5-4.5,4.5H146.488c-2.439,0-4.5-2.061-4.5-4.5v-17.357c0-2.439,2.061-4.5,4.5-4.5H263.78
			c4.143,0,7.5-3.358,7.5-7.5s-3.357-7.5-7.5-7.5H146.488c-10.753,0-19.501,8.749-19.501,19.501v17.357
			c0,10.753,8.749,19.501,19.501,19.501H415.81c10.753,0,19.501-8.749,19.501-19.501v-17.357
			C435.311,158.581,426.563,149.833,415.81,149.833z"/>
	</g>
</g>
<g>
	<g>
		<path d="M504.501,222.992c-4.143,0-7.5,3.357-7.5,7.5v139.42c0,13.379-10.885,24.263-24.263,24.263c-15.486,0-294.29,0-309.732,0
			v-20.292h303.363c5.701,0,10.34-4.638,10.34-10.34c0-13.283,0-287.182,0-301.105c0-5.701-4.638-10.34-10.34-10.34
			c-7.451,0-352.635,0-370.17,0c-5.701,0-10.34,4.638-10.34,10.34c0,5.225,0,156.625,0,164.164H65.565V56.071
			c0-13.379,10.884-24.263,24.263-24.263h382.908c13.379,0,24.263,10.885,24.263,24.263V195.49c0,4.143,3.357,7.5,7.5,7.5
			c4.143,0,7.5-3.357,7.5-7.5V56.071c0-21.65-17.613-39.264-39.264-39.264H89.827c-21.65,0-39.263,17.614-39.263,39.264v170.532
			h-23.78C12.015,226.603,0,238.619,0,253.388v32.48V319.2c0,1.864,0,145.824,0,149.212c0,14.769,12.015,26.783,26.784,26.783
			h109.438c14.769,0,26.784-12.015,26.784-26.783c0-4.429,0-51.485,0-59.234h58.003v35.066h-24.292
			c-10.995,0-19.939,8.945-19.939,19.939v11.071c0,10.995,8.945,19.939,19.939,19.939H365.85c10.996,0,19.94-8.945,19.94-19.939
			v-11.071c0-10.995-8.945-19.939-19.94-19.939h-24.292v-35.066h131.178c21.65,0,39.264-17.613,39.264-39.264V230.492
			C512.001,226.349,508.644,222.992,504.501,222.992z M163.004,67.101h298.702v38.139H163.004V67.101z M100.858,67.101h47.146
			v38.139h-47.146V67.101z M15.001,293.367h18.663v18.331H15.001V293.367z M148.003,468.412c0,6.495-5.285,11.782-11.783,11.782
			H26.784c-6.497,0-11.783-5.285-11.783-11.782v-27.99h133.002V468.412z M148.003,425.42H15.001v-98.721
			c5.852,0,127.303,0,133.002,0C148.003,337.594,148.003,414.623,148.003,425.42z M148.003,311.698H48.665v-18.331h99.338V311.698z
			 M148.003,278.366c-5.7,0-127.15,0-133.002,0v-24.979c0-6.497,5.285-11.783,11.783-11.783c11.763,0,94.333,0,106.036,0
			c8.372,0,15.183,6.811,15.183,15.184V278.366z M163.004,358.882v-23.33c1.447,0.344,2.949,0.545,4.5,0.545h119.048
			c10.753,0,19.501-8.748,19.501-19.501v-73.604c0-10.753-8.749-19.501-19.501-19.501H167.504c-6.486,0-12.227,3.195-15.774,8.081
			c-4.38-3.123-9.732-4.968-15.51-4.968h-3.4h-31.962V120.241c14.395,0,341.235,0,360.848,0v238.641H163.004z M163.004,316.597
			c0-47.211,0-26.394,0-73.604c0-2.439,2.061-4.5,4.5-4.5h119.048c2.439,0,4.5,2.061,4.5,4.5v73.604c0,2.439-2.061,4.5-4.5,4.5
			H167.504C165.065,321.097,163.004,319.036,163.004,316.597z M236.007,409.177h90.549v35.066h-90.549V409.177z M365.849,459.245
			c2.724-0.001,4.94,2.215,4.94,4.938v11.071c0,2.723-2.216,4.938-4.939,4.938H196.714c-2.723,0-4.938-2.216-4.938-4.938v-11.071
			c0-2.723,2.215-4.938,4.938-4.938C202.255,459.245,357.021,459.245,365.849,459.245z"/>
	</g>
</g>
<g>
</g>
<g>
</g>
<g>
</g>
<g>
</g>
<g>
</g>
<g>
</g>
<g>
</g>
<g>
</g>
<g>
</g>
<g>
</g>
<g>
</g>
<g>
</g>
<g>
</g>
<g>
</g>
<g>
</g>
</svg>
