<?xml version="1.0" encoding="iso-8859-1"?>
<!-- Generator: Adobe Illustrator 18.0.0, SVG Export Plug-In . SVG Version: 6.00 Build 0)  -->
<!DOCTYPE svg PUBLIC "-//W3C//DTD SVG 1.1//EN" "http://www.w3.org/Graphics/SVG/1.1/DTD/svg11.dtd">
<svg version="1.1" id="Capa_1" xmlns="http://www.w3.org/2000/svg" xmlns:xlink="http://www.w3.org/1999/xlink" x="0px" y="0px"
	 viewBox="0 0 60 60" style="enable-background:new 0 0 60 60;" xml:space="preserve">
<g>
	<circle cx="45" cy="44" r="1"/>
	<circle cx="50" cy="46" r="1"/>
	<circle cx="43" cy="49" r="1"/>
	<circle cx="40" cy="43" r="1"/>
	<circle cx="39" cy="53" r="1"/>
	<circle cx="20" cy="42" r="1"/>
	<circle cx="17" cy="50" r="1"/>
	<circle cx="16" cy="45" r="1"/>
	<circle cx="10" cy="45" r="1"/>
	<circle cx="7" cy="41" r="1"/>
	<path d="M26.289,45.585c-0.493,1.233-0.344,2.626,0.4,3.725c0.745,1.101,1.982,1.757,3.311,1.757s2.565-0.656,3.311-1.757
		c0.744-1.099,0.894-2.491,0.4-3.724L31,38.807V8c0-0.553-0.447-1-1-1s-1,0.447-1,1v30.807L26.289,45.585z M31.654,48.188
		c-0.378,0.558-0.98,0.878-1.654,0.878s-1.276-0.32-1.654-0.878c-0.377-0.557-0.449-1.235-0.199-1.86L30,41.693l1.854,4.636
		C32.104,46.953,32.031,47.632,31.654,48.188z"/>
	<path d="M59.994,31h-0.02C59.986,30.667,60,30.335,60,30C60,13.458,46.542,0,30,0S0,13.458,0,30c0,0.335,0.014,0.667,0.025,1h-0.02
		l0.031,0.462c0.008,0.157,0.022,0.313,0.032,0.469l0.009,0.137c0.002,0.024,0.005,0.048,0.007,0.072
		c0.032,0.457,0.074,0.911,0.126,1.362c0.003,0.028,0.007,0.056,0.011,0.084c0.055,0.459,0.119,0.914,0.194,1.366
		c0.002,0.015,0.005,0.03,0.008,0.045c0.129,0.767,0.284,1.524,0.471,2.27l-0.009,0.005l0.204,0.739
		c0.012,0.044,0.03,0.086,0.042,0.13c0.214,0.758,0.45,1.506,0.721,2.238c0.007,0.018,0.014,0.035,0.021,0.053
		c0.253,0.681,0.535,1.347,0.836,2.003c0.056,0.122,0.109,0.246,0.166,0.367c0.293,0.619,0.609,1.225,0.943,1.82
		c0.09,0.161,0.183,0.321,0.276,0.48c0.341,0.582,0.695,1.156,1.073,1.712c0.075,0.11,0.155,0.216,0.232,0.326
		c0.354,0.507,0.724,1.001,1.108,1.484c0.084,0.106,0.165,0.215,0.251,0.319c0.442,0.541,0.905,1.063,1.382,1.572
		c0.087,0.093,0.175,0.184,0.263,0.276c0.512,0.531,1.039,1.046,1.588,1.539c0.002,0.001,0.003,0.003,0.005,0.004
		c3.606,3.233,7.996,5.604,12.846,6.796c0.028,0.007,0.056,0.013,0.084,0.02c0.424,0.103,0.851,0.199,1.282,0.284
		c0.082,0.016,0.166,0.029,0.248,0.045c0.167,0.031,0.335,0.062,0.504,0.09c0.045,0.008,0.09,0.016,0.135,0.024
		c0.171,0.028,0.341,0.058,0.513,0.083c0.148,0.022,0.297,0.037,0.445,0.057c0.328,0.043,0.655,0.088,0.986,0.12
		c0.111,0.011,0.223,0.017,0.334,0.027c0.113,0.01,0.226,0.016,0.339,0.025c0.022,0.002,0.044,0.003,0.066,0.005
		c0.241,0.018,0.481,0.041,0.724,0.053C28.999,59.987,29.498,60,30,60s1.001-0.013,1.497-0.038c0.243-0.012,0.483-0.035,0.724-0.053
		c0.033-0.002,0.067-0.005,0.1-0.007c0.143-0.011,0.286-0.018,0.428-0.031c0.07-0.006,0.141-0.011,0.211-0.018
		c0.331-0.033,0.658-0.077,0.986-0.12c0.148-0.02,0.298-0.035,0.445-0.057c0.155-0.023,0.309-0.049,0.463-0.074
		c0.229-0.037,0.455-0.08,0.681-0.122c0.002,0,0.005-0.001,0.007-0.001c0.083-0.016,0.166-0.028,0.248-0.045
		c0.431-0.085,0.858-0.181,1.282-0.284c0.024-0.006,0.048-0.01,0.072-0.016c0.4-0.097,0.795-0.208,1.189-0.321
		c0.305-0.088,0.608-0.179,0.908-0.276c7.66-2.461,14.022-7.912,17.614-15.188c0.152-0.304,0.297-0.612,0.439-0.922
		c0.131-0.29,0.266-0.577,0.388-0.872c0.26-0.621,0.494-1.255,0.713-1.896c0.043-0.127,0.088-0.253,0.129-0.382
		c0.244-0.748,0.458-1.509,0.643-2.282c0.005-0.022,0.013-0.043,0.019-0.066l0.129-0.543l-0.005-0.005
		c0.1-0.458,0.188-0.92,0.266-1.385c0.003-0.015,0.005-0.03,0.008-0.045c0.075-0.452,0.139-0.907,0.194-1.366
		c0.003-0.028,0.007-0.056,0.011-0.084c0.053-0.451,0.094-0.905,0.126-1.362c0.002-0.024,0.005-0.047,0.007-0.072l0.009-0.137
		c0.01-0.157,0.024-0.312,0.032-0.469L59.994,31z M26,35.802l-0.598,1.449c-0.947,0.134-1.886-0.148-2.566-0.829l-0.5-0.5
		c-1.973-1.973-5.185-1.974-7.157,0l-0.5,0.5c-1.193,1.193-3.135,1.193-4.328,0l-0.515-0.515c-1.973-1.973-5.185-1.974-7.157,0
		l-0.032,0.032C2.438,34.977,2.273,33.997,2.167,33h21.346C24.884,33,26,34.116,26,35.487V35.802z M27.918,57.914
		c-0.121-0.009-0.242-0.017-0.363-0.028c-0.655-0.058-1.304-0.138-1.947-0.24c-0.103-0.016-0.205-0.034-0.307-0.051
		c-0.669-0.115-1.333-0.249-1.987-0.411c-0.053-0.013-0.106-0.029-0.159-0.042c-0.672-0.17-1.336-0.363-1.989-0.581
		c-0.019-0.006-0.038-0.012-0.057-0.018c-0.634-0.214-1.255-0.455-1.87-0.712c-0.106-0.044-0.213-0.088-0.318-0.134
		c-0.57-0.247-1.131-0.514-1.682-0.798c-0.14-0.072-0.278-0.147-0.417-0.221c-0.524-0.281-1.041-0.575-1.546-0.888
		c-0.152-0.095-0.3-0.196-0.451-0.294c-0.378-0.244-0.749-0.499-1.115-0.761c-0.241-0.173-0.481-0.349-0.716-0.53
		c-0.336-0.257-0.664-0.523-0.988-0.794c-0.227-0.191-0.453-0.382-0.673-0.58c-0.343-0.307-0.678-0.623-1.006-0.947
		c-0.24-0.237-0.473-0.479-0.704-0.725c-0.177-0.188-0.349-0.381-0.522-0.574c-0.353-0.396-0.696-0.801-1.026-1.217
		c-0.147-0.185-0.291-0.371-0.433-0.56c-0.314-0.416-0.616-0.842-0.907-1.276c-0.154-0.23-0.308-0.461-0.455-0.696
		c-0.173-0.275-0.344-0.552-0.508-0.833c-0.242-0.418-0.474-0.843-0.695-1.276c-0.127-0.248-0.249-0.499-0.369-0.752
		c-0.229-0.483-0.45-0.97-0.652-1.468c-0.076-0.187-0.145-0.379-0.217-0.568c-0.194-0.51-0.377-1.026-0.542-1.551
		c-0.024-0.078-0.052-0.154-0.076-0.232c0.127-0.103,0.248-0.209,0.359-0.32l0.515-0.515c1.155-1.156,3.172-1.156,4.329,0
		l0.515,0.515c0.956,0.956,2.227,1.482,3.578,1.482s2.622-0.526,3.578-1.482l0.5-0.5c1.194-1.193,3.137-1.192,4.329,0l0.5,0.5
		c0.832,0.832,1.93,1.332,3.081,1.442L22.575,44.1c-0.986,2.467-0.687,5.253,0.802,7.452c1.49,2.201,3.966,3.515,6.623,3.515
		s5.133-1.313,6.623-3.515c1.489-2.2,1.788-4.985,0.802-7.451l-0.002-0.005c-0.001-0.002-0.001-0.004-0.002-0.006l-0.013-0.031
		l-2.098-5.246c1.886,0.909,4.222,0.582,5.782-0.978c1.195-1.193,3.138-1.191,4.329,0c0.956,0.956,2.227,1.482,3.578,1.482
		s2.622-0.526,3.578-1.482l0.515-0.515c1.091-1.09,2.805-1.183,4.001-0.284c-0.024,0.091-0.051,0.181-0.076,0.272
		c-0.145,0.539-0.309,1.068-0.483,1.592c-0.114,0.338-0.234,0.672-0.36,1.003c-0.114,0.302-0.234,0.601-0.357,0.898
		c-3.251,7.732-9.874,13.684-17.958,16.064c-0.048,0.014-0.095,0.029-0.143,0.043c-0.01,0.003-0.02,0.005-0.029,0.008
		c-0.366,0.105-0.735,0.203-1.106,0.293c-0.036,0.009-0.073,0.017-0.109,0.025c-0.449,0.105-0.901,0.203-1.357,0.287
		c-0.053,0.01-0.107,0.019-0.161,0.029c-0.203,0.037-0.407,0.07-0.611,0.102c-0.586,0.091-1.176,0.169-1.772,0.223
		c-0.151,0.014-0.303,0.023-0.454,0.035C31.417,57.964,30.713,58,30,58C29.301,58,28.607,57.966,27.918,57.914z M34,35.498v-0.01
		C34,34.116,35.116,33,36.487,33h21.346c-0.072,0.673-0.175,1.337-0.294,1.995c-1.899-0.962-4.275-0.674-5.86,0.912l-0.515,0.515
		c-1.156,1.156-3.172,1.156-4.328,0c-1.972-1.973-5.184-1.975-7.157,0c-1.193,1.193-3.135,1.193-4.328,0l-1.095-1.059L34,35.498z
		 M2,30C2,14.561,14.561,2,30,2s28,12.561,28,28c0,0.335-0.014,0.667-0.025,1H36.487C34.013,31,32,33.013,32,35.487v0.709
		l3.567,8.646c0.74,1.85,0.516,3.938-0.601,5.588c-1.117,1.65-2.974,2.636-4.967,2.636s-3.85-0.985-4.967-2.636
		c-1.115-1.647-1.34-3.733-0.603-5.583l3.57-8.65v-0.711C28,33.013,25.987,31,23.513,31H2.025C2.014,30.667,2,30.335,2,30z"/>
</g>
<g>
</g>
<g>
</g>
<g>
</g>
<g>
</g>
<g>
</g>
<g>
</g>
<g>
</g>
<g>
</g>
<g>
</g>
<g>
</g>
<g>
</g>
<g>
</g>
<g>
</g>
<g>
</g>
<g>
</g>
</svg>
