<?xml version="1.0" encoding="iso-8859-1"?>
<!-- Generator: Adobe Illustrator 19.0.0, SVG Export Plug-In . SVG Version: 6.00 Build 0)  -->
<svg version="1.1" id="Layer_1" xmlns="http://www.w3.org/2000/svg" xmlns:xlink="http://www.w3.org/1999/xlink" x="0px" y="0px"
	 viewBox="0 0 503.607 503.607" style="enable-background:new 0 0 503.607 503.607;" xml:space="preserve">
<g transform="translate(1 1)">
	<g>
		<g>
			<path d="M303.575,435.459c-27.698-7.554-60.433-16.787-88.971-16.787h-22.662c-57.075,0-128.42,67.148-131.777,69.666
				c-3.357,3.357-3.357,8.393,0,11.751c1.679,1.679,3.357,2.518,5.875,2.518c1.679,0,4.197-0.839,5.875-3.357
				c0.839,0,69.666-64.63,120.026-64.63h23.502c26.02,0,57.075,9.233,83.934,16.787c4.197,0.839,8.393-1.679,10.072-5.875
				C310.289,441.334,307.771,437.138,303.575,435.459z"/>
			<path d="M469.765,275.984c-5.036-0.839-9.233,2.518-9.233,7.554c0,0-2.518,28.538-15.108,56.236
				c-15.948,36.092-41.967,53.718-77.22,53.718c-1.37,0-2.61,0.256-3.698,0.719c-13.616-0.266-25.409-0.973-35.746-1.982
				c68.904-39.06,89.079-183.691,89.804-190.947c0-4.197-3.357-8.393-7.554-9.233c-4.197,0-8.393,3.357-9.233,7.554
				c0,1.679-25.18,185.495-109.115,185.495c-1.354,0-2.581,0.25-3.659,0.702c-5.263-1.23-10.031-2.498-14.485-3.737
				c73.604-39.902,76.899-214.669,76.899-223.588c0-4.197-3.357-8.393-8.393-8.393c-4.197,0-8.393,3.357-8.393,8.393
				c0,2.518-4.197,214.872-92.328,214.872c-0.881,0-1.706,0.109-2.475,0.305c-6.108-1.1-12.232-2.008-18.382-2.703
				c65.659-54.495,46.788-221.843,46.037-230.1c-0.839-5.036-5.036-8.393-9.233-7.554c-5.036,0.839-8.393,5.036-7.554,9.233
				c0,2.518,22.662,203.121-61.272,226.623h-13.718c50.358-70.543,9.422-200.112,7.842-205.639
				c-1.679-4.197-6.715-6.715-10.911-5.036c-4.197,1.679-6.715,6.715-5.036,10.911c0,1.675,44.292,141.26-14.746,201.063
				c-4.914,0.879-9.864,2.187-14.81,3.835c33.604-73.522-11.831-171.844-14.089-176.36c-1.679-4.197-6.715-5.875-10.911-4.197
				c-4.197,1.679-5.875,6.715-4.197,10.911c0,0.836,53.278,115.745,1.449,182.179c-1.768,0.99-3.522,2.008-5.265,3.047
				c13.951-60.955-29.343-153.481-31.437-158.367c-1.679-4.197-6.715-5.875-10.911-4.197c-4.197,1.679-5.875,6.715-4.197,10.911
				c16.655,34.975,52.299,133.554,19.252,170.351c-4.411,3.395-8.612,6.796-12.538,10.108
				c7.554-56.236-40.289-126.741-42.807-130.098c-2.518-4.197-7.554-5.036-11.751-2.518c-3.357,2.518-4.197,7.554-1.679,10.911
				c0.839,1.679,69.666,102.4,26.859,148.564c-0.839,0.839-0.839,0.839-0.839,0.839c-3.357,3.357-3.357,8.393,0,11.751
				c1.679,1.679,4.197,2.518,5.875,2.518c2.518,0,4.197-0.839,5.875-1.679c0.839-0.839,0.839-0.839,0.839-0.839
				c3.17-3.17,19.246-19.431,40.368-35.718c0.255-0.123,0.508-0.248,0.76-0.374c0.208-0.219,0.398-0.45,0.602-0.671
				c23.405-17.863,52.681-35.42,77.457-35.42h22.662c26.859,0,52.879,4.197,78.898,11.751c22.662,6.715,51.2,13.43,108.275,13.43
				c2.125,0,3.946-0.604,5.347-1.673c87.001-10.794,95.374-123.429,95.374-124.229C478.158,280.18,474.801,275.984,469.765,275.984z
				"/>
			<path d="M405.135,24.18c-10.911,0-20.144,9.233-20.144,20.144v5.036h-8.393v-8.393c0-5.036-3.357-8.393-8.393-8.393
				c-5.036,0-8.393,3.357-8.393,8.393v8.393h-8.393v-8.393c0-5.036-3.357-8.393-8.393-8.393c-5.036,0-8.393,3.357-8.393,8.393v8.393
				h-8.393V32.574c0-5.036-3.357-8.393-8.393-8.393c-5.036,0-8.393,3.357-8.393,8.393v16.787h-8.393V24.18
				c0-5.036-3.357-8.393-8.393-8.393c-5.036,0-8.393,3.357-8.393,8.393v25.18h-8.393V15.787c0-5.036-3.357-8.393-8.393-8.393
				s-8.393,3.357-8.393,8.393v33.574h-8.393V7.393c0-5.036-3.357-8.393-8.393-8.393s-8.393,3.357-8.393,8.393v41.967h-8.393V7.393
				c0-5.036-3.357-8.393-8.393-8.393s-8.393,3.357-8.393,8.393v41.967h-8.393V7.393c0-5.036-3.357-8.393-8.393-8.393
				s-8.393,3.357-8.393,8.393v41.967h-8.393V7.393c0-5.036-3.357-8.393-8.393-8.393c-5.036,0-8.393,3.357-8.393,8.393v41.967h-8.393
				V15.787c0-5.036-3.357-8.393-8.393-8.393s-8.393,3.357-8.393,8.393v33.574h-8.393V24.18c0-5.036-3.357-8.393-8.393-8.393
				c-5.036,0-8.393,3.357-8.393,8.393v25.18h-8.393V32.574c0-5.036-3.357-8.393-8.393-8.393s-8.393,3.357-8.393,8.393v16.787h-8.393
				v-8.393c0-5.036-3.357-8.393-8.393-8.393c-5.036,0-8.393,3.357-8.393,8.393v8.393c-5.036,0-8.393,3.357-8.393,8.393
				s3.357,8.393,8.393,8.393v8.393c0,5.036,3.357,8.393,8.393,8.393c5.036,0,8.393-3.357,8.393-8.393v-8.393h8.393v16.787
				c0,5.036,3.357,8.393,8.393,8.393s8.393-3.357,8.393-8.393V66.148h8.393v25.18c0,5.036,3.357,8.393,8.393,8.393
				c5.036,0,8.393-3.357,8.393-8.393v-25.18h8.393v33.574c0,5.036,3.357,8.393,8.393,8.393s8.393-3.357,8.393-8.393V66.148h8.393
				v41.967c0,5.036,3.357,8.393,8.393,8.393c5.036,0,8.393-3.357,8.393-8.393V66.148h8.393v41.967c0,5.036,3.357,8.393,8.393,8.393
				s8.393-3.357,8.393-8.393V66.148h8.393v41.967c0,5.036,3.357,8.393,8.393,8.393s8.393-3.357,8.393-8.393V66.148h8.393v41.967
				c0,5.036,3.357,8.393,8.393,8.393s8.393-3.357,8.393-8.393V66.148h8.393v33.574c0,5.036,3.357,8.393,8.393,8.393
				s8.393-3.357,8.393-8.393V66.148h8.393v25.18c0,5.036,3.357,8.393,8.393,8.393c5.036,0,8.393-3.357,8.393-8.393v-25.18h8.393
				v16.787c0,5.036,3.357,8.393,8.393,8.393c5.036,0,8.393-3.357,8.393-8.393V66.148h8.393v8.393c0,5.036,3.357,8.393,8.393,8.393
				c5.036,0,8.393-3.357,8.393-8.393v-8.393h8.393v8.393c0,5.036,3.357,8.393,8.393,8.393c5.036,0,8.393-3.357,8.393-8.393v-8.393
				h8.393v5.036c0,10.911,9.233,20.144,20.144,20.144h88.971V24.18H405.135z M477.319,74.541h-72.184
				c-1.679,0-3.357-1.679-3.357-3.357V44.325c0-1.679,1.679-3.357,3.357-3.357h72.184V74.541z"/>
		</g>
	</g>
</g>
<g>
</g>
<g>
</g>
<g>
</g>
<g>
</g>
<g>
</g>
<g>
</g>
<g>
</g>
<g>
</g>
<g>
</g>
<g>
</g>
<g>
</g>
<g>
</g>
<g>
</g>
<g>
</g>
<g>
</g>
</svg>
