<?xml version="1.0" encoding="iso-8859-1"?>
<!-- Generator: Adobe Illustrator 19.0.0, SVG Export Plug-In . SVG Version: 6.00 Build 0)  -->
<svg version="1.1" id="Layer_1" xmlns="http://www.w3.org/2000/svg" xmlns:xlink="http://www.w3.org/1999/xlink" x="0px" y="0px"
	 viewBox="0 0 512.277 512.277" style="enable-background:new 0 0 512.277 512.277;" xml:space="preserve">
<g transform="translate(1 1)">
	<g>
		<g>
			<path d="M509.756,131.543c-0.206-1.834-0.453-3.657-0.727-5.473c-0.007-0.049-0.014-0.099-0.022-0.148
				c-0.263-1.735-0.559-3.46-0.882-5.176c-0.037-0.195-0.074-0.39-0.111-0.585c-0.306-1.59-0.634-3.173-0.991-4.746
				c-0.093-0.414-0.195-0.826-0.292-1.239c-0.253-1.072-0.518-2.139-0.794-3.202c-0.294-1.138-0.605-2.269-0.925-3.398
				c-0.129-0.452-0.257-0.904-0.39-1.354c-4.033-13.723-10.022-26.721-17.871-38.805c-0.167-0.258-0.336-0.515-0.505-0.772
				c-0.742-1.128-1.499-2.249-2.274-3.36c-0.487-0.701-0.979-1.397-1.477-2.089c-0.377-0.522-0.751-1.045-1.135-1.563
				c-0.815-1.102-1.649-2.189-2.493-3.268c-0.328-0.419-0.657-0.837-0.99-1.253c-0.85-1.062-1.712-2.114-2.589-3.152
				c-0.176-0.208-0.341-0.423-0.518-0.631c-0.033-0.033-0.069-0.06-0.102-0.092c-23.794-27.795-57.52-46.839-95.471-51.108
				c-21.333-2.56-42.667-0.853-63.147,5.973C223.036,35.97,140.262,50.477,60.902,50.477h-10.24c-28.16,0-51.2,23.04-51.2,51.2
				v102.4c0,28.16,23.04,51.2,51.2,51.2h25.6h19.627c53.629,0,109.829,7.197,169.791,21.979L217.063,407.17
				c-14.507,39.253,5.973,84.48,45.227,98.987c9.387,3.413,17.92,5.12,27.307,5.12c30.72,0,60.587-18.773,70.827-49.493
				l67.833-179.214c16.807-8.304,32.038-19.802,44.807-34.119C501.222,216.023,514.876,175.063,509.756,131.543z M493.542,134.103
				c3.413,33.28-5.12,66.56-24.747,93.013c-19.627-26.453-28.16-59.733-24.747-93.013c2.56-23.04,11.093-44.373,24.747-63.147
				C482.449,88.877,490.982,111.063,493.542,134.103z M50.662,238.21c-18.773,0-34.133-15.36-34.133-34.133v-102.4
				c0-18.773,15.36-34.133,34.133-34.133h10.24c2.56,0,5.12,0,6.827,0V238.21H50.662z M314.967,290.861
				c1.214,0.37,2.425,0.733,3.642,1.109c14.507,4.267,29.013,5.973,43.52,5.973c1.615,0,3.224-0.034,4.83-0.085l-19.337,51.285
				c-5.12,12.8-20.48,20.48-33.28,15.36c-7.68-2.56-12.8-8.533-15.36-16.213c-1.707-5.12-1.707-11.947,0.853-17.92L314.967,290.861z
				 M345.916,454.957c-11.093,30.72-46.08,46.933-76.8,34.987c-30.72-11.093-46.933-46.08-34.987-76.8l49.443-131.279
				c5.061,1.358,10.15,2.769,15.266,4.233l-14.362,38.299c-4.267,10.24-4.267,20.48-1.707,29.013c3.413,12.8,12.8,23.04,25.6,27.307
				c5.12,1.707,10.24,2.56,15.36,2.56c17.92,0,34.133-11.093,40.107-27.307l22.915-60.053c7.24-1.198,14.345-2.917,21.264-5.141
				L345.916,454.957z M421.297,267.193c-1.206-0.019-2.454,0.26-3.702,0.884c-11.699,5.571-23.764,9.311-36.191,11.245
				c-0.693-0.1-1.426-0.152-2.209-0.152c-6.827,0.853-11.947,0.853-17.067,0.853c-13.653,0-26.453-2.56-38.4-5.973
				c-1.707,0-4.267-0.853-6.827-1.707l-3.381-0.676C235.102,249.12,163.546,238.21,95.889,238.21H84.796V67.121
				c73.942-2.573,151.762-17.087,237.227-44.805c17.92-5.973,36.693-7.68,56.32-5.12c30.615,3.499,58.313,18.209,79.079,39.758
				c-16.919,21.814-27.299,47.113-30.439,74.589c-4.853,39.629,6.401,78.486,30.836,109.317
				C447.053,251.717,434.693,260.587,421.297,267.193z"/>
			<path d="M400.529,135.81h-102.4c-5.12,0-8.533,3.413-8.533,8.533c0,5.12,3.413,8.533,8.533,8.533h102.4
				c5.12,0,8.533-3.413,8.533-8.533C409.063,139.223,405.649,135.81,400.529,135.81z"/>
			<path d="M383.462,178.477h-68.267c-5.12,0-8.533,3.413-8.533,8.533s3.413,8.533,8.533,8.533h68.267
				c5.12,0,8.533-3.413,8.533-8.533S388.582,178.477,383.462,178.477z"/>
			<path d="M315.196,110.21h68.267c5.12,0,8.533-3.413,8.533-8.533s-3.413-8.533-8.533-8.533h-68.267
				c-5.12,0-8.533,3.413-8.533,8.533S310.076,110.21,315.196,110.21z"/>
		</g>
	</g>
</g>
<g>
</g>
<g>
</g>
<g>
</g>
<g>
</g>
<g>
</g>
<g>
</g>
<g>
</g>
<g>
</g>
<g>
</g>
<g>
</g>
<g>
</g>
<g>
</g>
<g>
</g>
<g>
</g>
<g>
</g>
</svg>
