<svg height="512" viewBox="0 0 60 60" width="512" xmlns="http://www.w3.org/2000/svg"><g id="023---Investing-Money" transform="translate(0 -1)"><path id="Shape" d="m51.52 15.28c-2-1.95-3.88-.45-5 .45-1.44 1.11-1.8 1.21-2.39.61-1-1 1.11-3.57 2.65-3.2.5090038.0919897 1.0041573-.2193672 1.1417922-.7179688.1376348-.4986017-.1276771-1.0198787-.6117922-1.2020312-1.1642474-.2327539-2.3721786.0518946-3.31.78l-.42-.42c-.3921222-.3948836-1.0301164-.3971221-1.425-.005-.3948836.3921222-.3971222 1.0301164-.005 1.425l.43.43c-1.0311256 1.2769252-.9888446 3.111922.1 4.34 2 2 3.88.45 5-.44 1.44-1.12 1.8-1.21 2.4-.62s.16 1.61-.53 2.3c-.5138537.6091654-1.1900574 1.0599679-1.95 1.3-.5522847 0-1 .4477153-1 1s.4477153 1 1 1c.9799868-.1103703 1.8967854-.5389122 2.61-1.22.41.41.62.69 1.1.69.4062651.0023626.77358-.2413038.929371-.6165185.1557909-.3752147.0690889-.807391-.219371-1.0934815l-.41-.4c1.1370494-1.2563565 1.0975858-3.1813011-.09-4.39z"/><path id="Shape" d="m52.76 2.37c-2.28-2.28-5.6-1.47-7.76.71l-17.51 17.49-5.34 1.43c-.5879594.1731961-1.0360542.6511639-1.1709968 1.2490632-.1349425.5978993.0644226 1.2219953.5209968 1.6309368l3.11 3.12c.4112562.4555725 1.0361408.6541037 1.6349236.5194294s1.0784858-.5816422 1.2550764-1.1694294l1.33-5.05 7.09-2c1.0483741-.3019109 2.1780076-.0108866 2.95.76l7.52 7.53c.5629056.5648636 1.3275456.8823657 2.125.8823657s1.5620944-.3175021 2.125-.8823657l8.48-8.49c1.1698135-1.1712702 1.1698135-3.0687298 0-4.24l-4.24-4.24c-2.42-2.48.43-6.69-2.12-9.25zm-27 23.87-2.48-2.48 3.37-.89zm32-7.6-8.49 8.48c-.3900375.3877236-1.0199625.3877236-1.41 0l-7.58-7.52c-.9378683-.9408066-2.2115746-1.4697186-3.54-1.47-1 0-1.25.16-5.3 1.31l14.25-14.24 12 12c.1981945.1857532.3122961.4441407.3160685.715749.0037723.2716084-.1031092.5330651-.2960685.724251zm-10.6-14.79c1.39-1 3-1.27 4.18-.06.91.91.46 2.75.47 4.71z"/><path id="Shape" d="m19 32c.54 0 .57-.15 2.71-2.29.3921221-.3921222.3921221-1.0278778 0-1.42-.3921222-.3921221-1.0278778-.3921221-1.42 0l-2 2c-.2884599.2860905-.3751619.7182668-.219371 1.0934815.155791.3752147.5231059.6188811.929371.6165185z"/><path id="Shape" d="m23 31v1c0 .5522847.4477153 1 1 1s1-.4477153 1-1v-1c0-.5522847-.4477153-1-1-1s-1 .4477153-1 1z"/><path id="Shape" d="m20 26c0-.5522847-.4477153-1-1-1h-1c-.5522847 0-1 .4477153-1 1s.4477153 1 1 1h1c.5522847 0 1-.4477153 1-1z"/><path id="Shape" d="m60 50.24c-.0094917-.4499352-.2563911-.8612469-.6490146-1.0811983-.3926235-.2199513-.8723301-.2156913-1.2609854.0111983-1.6415756.9899655-3.0394174 2.3365418-4.09 3.94v-5.5c1.13-.89 2-3.16 2-5.61v-1c.0444146-.4868098-.1067092-.9712846-.4200206-1.3465078s-.7630551-.6103503-1.2499794-.6534922h-2.66c-.4869243.0431419-.936668.278269-1.2499794.6534922s-.4644352.859698-.4200206 1.3465078v1c0 2.45.87 4.72 2 5.61v5.5c-1.0505826-1.6034582-2.4484244-2.9500345-4.09-3.94-.3886553-.2268896-.8683619-.2311496-1.2609854-.0111983-.3926235.2199514-.6395229.6312631-.6490146 1.0811983.08 4.62 1.44 7.25 2.94 8.76h-8.75c1.88-1.8 3.71-5.21 3.81-11.69-.004877-.4728835-.2642467-.9064296-.6786168-1.1343331-.4143701-.2279036-.9194073-.2147814-1.3213832.0343331-2.0992075 1.4047145-3.8171765 3.3082241-5 5.54v-9c1.9484058-1.2495127 3.0897551-3.437099 3-5.75v-4c0-1.1045695-.8954305-2-2-2h-4c-1.1045695 0-2 .8954305-2 2v4c-.0825709 2.3058807 1.0578903 4.4841616 3 5.73v9c-1.1828235-2.2317759-2.9007925-4.1352855-5-5.54-.4019759-.2491145-.9070131-.2622367-1.3213832-.0343331-.4143701.2279035-.6737398.6614496-.6786168 1.1343331.1 6.48 1.93 9.89 3.81 11.69h-15c3.25-2.48 7-8 7.15-20.49.007252-.555899-.2955824-1.0696009-.7854816-1.3324224-.4898991-.2628214-1.0853725-.2310443-1.5445184.0824224-3.9397406 2.9277533-6.9390926 6.9419497-8.63 11.55v-24c1.61-.59 2.2-2.27 2.24-4 .8349479.8889782 1.9736139 1.4315401 3.19 1.52.8745259-.0041831 1.7014672-.398794 2.2548348-1.0759921.5533676-.6771982.7753068-1.5661822.6051652-2.4240079-.2309517-.9924304-.7410228-1.8980668-1.47-2.61 1.0163774.0221739 2.0171846-.252353 2.88-.79 2.28-1.58 1.75-5.57-2.88-5.68 3.15-3.31.79-6.55-2-6-.9894627.23114408-1.8918312.74132934-2.6 1.47.009631-1.01615056-.2676597-2.01439703-.8-2.88-1.56-2.32-5.55-1.77-5.66 2.86-3.32-3.16-6.55-.77-6 2 .23114408.98946269.74132934 1.89183118 1.47 2.6-1.01615056-.009631-2.01439703.2676597-2.88.8-2.25 1.55-1.8 5.56 2.88 5.67-.72897723.7119332-1.23904832 1.6175696-1.47 2.61-.5 2.73 2.69 5.18 6.05 2 0 1.71.62 3.4 2.24 4v24c-1.70686809-4.6377745-4.73919257-8.6716006-8.72-11.6-.45914589-.3134667-1.05461925-.3452438-1.54451844-.0824224-.48989918.2628215-.7927336.7765234-.78548156 1.3324224.17 12.49 3.9 18.01 7.15 20.49h-6.15c-.55228475 0-1 .4477153-1 1s.44771525 1 1 1h58c.5522847 0 1-.4477153 1-1s-.4477153-1-1-1h-1.94c1.5-1.51 2.86-4.14 2.94-8.76zm-2.08 1.47c-.44 4.79-2.52 6.44-3.85 7 .2958955-2.7542063 1.6824454-5.2752061 3.85-7zm-5.92-10.71h2v1c.0460933 1.3372755-.3016329 2.6586351-1 3.8-.6983671-1.1413649-1.0460933-2.4627245-1-3.8zm-3.92 10.71c2.1640847 1.7277186 3.5497763 4.2471579 3.85 7-1.32-.57-3.41-2.22-3.85-7zm-6.13-3c-.45 7.17-3.3 9.34-4.9 10 .2167586-3.8661875 2.005183-7.4755532 4.95-9.99zm-7.95-11.71v-4h4v4c.1133376 1.5984235-.6532586 3.131616-2 4-1.3467414-.868384-2.1133376-2.4015765-2-4zm-3.95 11.72c2.9286417 2.525682 4.6986505 6.1379449 4.9 10-1.6-.66-4.45-2.83-4.9-10zm-8.05-9.19c-.5 15.14-6.48 18.47-9 19.26.43-11.28 6.44-17.24 9-19.26zm-2.93-19.46c-.2216228.2375325-.5560855.3336425-.87.25-1.1938787-.4132011-2.1778019-1.2786227-2.74-2.41.5553954-.4054571 1.0445429-.8946046 1.45-1.45 1.1313773.5621981 1.9967989 1.5461213 2.41 2.74.0813789.3138887-.0143994.6471973-.25.87zm2.49-7.86c.2731621.1696764.4392862.4684295.4392862.79s-.1661241.6203236-.4392862.79c-1.1395331.5502065-2.4482336.6362581-3.65.24.1199772-.6814259.1199772-1.3785741 0-2.06 1.2017664-.3962581 2.5104669-.3102065 3.65.24zm-3.36-6.53c.3141282-.07473617.6445408.01881478.872863.24713698.2283222.22832219.3218732.55873477.247137.87286302-.4132011 1.19387865-1.2786227 2.17780192-2.41 2.74-.4054571-.55539537-.8946046-1.04454287-1.45-1.45.5621981-1.13137735 1.5461213-1.99679891 2.74-2.41zm-7-2.24c.1696764-.27316206.4684295-.43928623.79-.43928623s.6203236.16612417.79.43928623c.5436186 1.1421709.622495 2.45080307.22 3.65-.6814259-.11997721-1.3785741-.11997721-2.06 0-.3869323-1.20562083-.2901159-2.51443478.27-3.65zm-6.27 2.49c.22394243-.23372021.55614362-.32918032.87-.25 1.19387865.41320109 2.17780192 1.27862265 2.74 2.41-.55539537.40545713-1.04454287.89460463-1.45 1.45-1.13137735-.56219808-1.99679891-1.54612135-2.41-2.74-.08137889-.31388872.01439944-.64719733.25-.87zm-.56 5.82c.58123532.0146345 1.15864907.0985609 1.72.25-.11997721.6814259-.11997721 1.3785741 0 2.06-1.20176643.3962581-2.51046686.3102065-3.65-.24-.86-.62-.63-2.07 1.93-2.07zm1.43 8.57c-.31412825.0747362-.64454083-.0188148-.87286302-.247137-.2283222-.2283222-.32187315-.5587348-.24713698-.872863.41320109-1.1938787 1.27862265-2.1778019 2.41-2.74.40545713.5553954.89460463 1.0445429 1.45 1.45-.56219808 1.1313773-1.54612135 1.9967989-2.74 2.41zm2.58-5.61c-.03455276-.0572094-.07475377-.1108107-.12-.16.00971311-.0663129.00971311-.1336871 0-.2-.30484098-.8741867-.30484098-1.8258133 0-2.7.00395289-.0565977.00395289-.1134023 0-.17.41282775-.9041234 1.11707758-1.64358577 2-2.1.0539637-.03093041.1042796-.06782873.15-.11.9440878-.31707926 1.9659122-.31707926 2.91 0 .0663129.00971311.1336871.00971311.2 0 .4638032.24738458.8939765.55321092 1.28.91.3674429.3884539.6742235.8300832.91 1.31.1661334.4874733.2637331.9956649.29 1.51-.0245256.5251884-.1118129 1.0455548-.26 1.55-.2473846.4638032-.5532109.8939765-.91 1.28-.3878805.3544956-.8177528.660108-1.28.91-.0663129-.0097131-.1336871-.0097131-.2 0-.8727985.3129305-1.8272015.3129305-2.7 0-.0663129-.0097131-.1336871-.0097131-.2 0-.0491893-.0452462-.1027906-.0854472-.16-.12-.83553224-.4006738-1.50932625-1.0744678-1.91-1.91zm2.62 4.2c.6814259.1199772 1.3785741.1199772 2.06 0 .3962581 1.2017664.3102065 2.5104669-.24 3.65-.1696764.2731621-.4684295.4392862-.79.4392862s-.6203236-.1661241-.79-.4392862c-.5502065-1.1395331-.6362581-2.4482336-.24-3.65zm-9 20.62c2.53 2 8.55 8 9 19.25-2.5-.78-8.5-4.22-9-19.25z"/></g></svg>