<?xml version="1.0" encoding="iso-8859-1"?>
<!-- Generator: Adobe Illustrator 19.0.0, SVG Export Plug-In . SVG Version: 6.00 Build 0)  -->
<svg version="1.1" id="Capa_1" xmlns="http://www.w3.org/2000/svg" xmlns:xlink="http://www.w3.org/1999/xlink" x="0px" y="0px"
	 viewBox="0 0 512.008 512.008" style="enable-background:new 0 0 512.008 512.008;" xml:space="preserve">
<g transform="translate(0 -1)">
	<g>
		<g>
			<path d="M497.438,40.137c3.336,3.308,8.719,3.296,12.041-0.026c3.322-3.322,3.333-8.705,0.026-12.041l-6.233-6.233l0.1-0.1
				c3.332-3.332,3.332-8.735,0-12.067c-3.332-3.332-8.735-3.332-12.067,0l-0.1,0.1l-6.234-6.233
				c-2.151-2.178-5.304-3.037-8.262-2.251c-2.958,0.786-5.269,3.097-6.055,6.055c-0.786,2.958,0.073,6.111,2.251,8.262l6.233,6.233
				l-6.333,6.333l-18.5-18.5c-3.332-3.332-8.735-3.332-12.067,0c-3.332,3.332-3.332,8.735,0,12.067l18.5,18.5l-6.334,6.333
				l-24.633-24.633c-3.332-3.332-8.734-3.332-12.067,0c-3.332,3.332-3.332,8.735,0,12.067l24.633,24.633l-6.333,6.333
				l-24.634-24.633c-3.341-3.281-8.701-3.256-12.012,0.054s-3.335,8.671-0.054,12.012l24.633,24.633l-6.333,6.333l-18.5-18.5
				c-3.332-3.332-8.735-3.332-12.067,0c-3.332,3.332-3.332,8.735,0,12.067l18.5,18.5l-6.333,6.333l-6.233-6.233
				c-3.332-3.332-8.734-3.332-12.067,0c-3.332,3.332-3.332,8.735,0,12.067l6.233,6.233L270.405,230.57l-6.333-6.333
				c-6.667-6.659-17.467-6.659-24.133,0l-12.467,12.467l-18.5-18.5c-1.6-1.601-3.77-2.5-6.033-2.5s-4.433,0.899-6.033,2.5
				L12.505,402.6c-16.633,16.674-16.633,43.664,0,60.338l37.592,37.596c16.675,16.633,43.667,16.633,60.342,0l159.865-159.862
				l0.002-0.001l0.001-0.002l24.532-24.532c1.601-1.6,2.5-3.77,2.5-6.033s-0.899-4.433-2.5-6.033l-18.5-18.5l12.475-12.475
				c6.633-6.672,6.633-17.449,0-24.121l-0.009-0.009l-6.331-6.331l116.732-116.731l6.233,6.233c2.156,2.156,5.297,2.997,8.242,2.208
				c2.944-0.789,5.244-3.089,6.033-6.033c0.789-2.945-0.053-6.086-2.208-8.242l-6.233-6.233l6.333-6.333l18.5,18.5
				c3.337,3.303,8.716,3.29,12.036-0.03c3.32-3.32,3.334-8.699,0.03-12.036l-18.5-18.5l6.333-6.333l24.633,24.633
				c3.332,3.332,8.734,3.332,12.067,0c3.332-3.332,3.332-8.735,0-12.067l-24.633-24.633l6.333-6.333l24.633,24.633
				c3.332,3.332,8.734,3.332,12.067,0c3.332-3.332,3.332-8.735,0-12.067l-24.633-24.633l6.333-6.333l18.5,18.5
				c3.332,3.332,8.735,3.332,12.067,0c3.332-3.332,3.332-8.735,0-12.067l-18.5-18.5l6.333-6.333L497.438,40.137z M98.372,488.466
				c-10.008,9.975-26.2,9.975-36.208,0l-37.592-37.596c-9.975-10.007-9.975-26.197,0-36.204l153.833-153.83l73.8,73.8
				L98.372,488.466z M276.739,310.104l-12.467,12.467l-73.8-73.8l12.466-12.467l18.5,18.5l36.8,36.8L276.739,310.104z M282.772,255
				l-18.5,18.504l-24.733-24.733l12.467-12.467l12.363,12.36l0.002,0.004l0.008,0.006l12.36,12.358L282.772,255z"/>
			<path d="M141.705,322.471L37.438,426.733c-2.44,2.44-3.169,6.11-1.849,9.298s4.431,5.267,7.882,5.268l0,0
				c2.264,0.003,4.435-0.897,6.033-2.5l104.267-104.262c3.332-3.332,3.332-8.735,0-12.067
				C150.44,319.138,145.037,319.138,141.705,322.471z"/>
			<path d="M172.371,291.804l-6.133,6.133c-2.44,2.44-3.169,6.11-1.849,9.298c1.32,3.188,4.431,5.267,7.882,5.268l0,0
				c2.264,0.003,4.435-0.897,6.033-2.5l6.133-6.133c3.332-3.332,3.332-8.735,0-12.067
				C181.106,288.472,175.704,288.472,172.371,291.804z"/>
		</g>
	</g>
</g>
<g>
</g>
<g>
</g>
<g>
</g>
<g>
</g>
<g>
</g>
<g>
</g>
<g>
</g>
<g>
</g>
<g>
</g>
<g>
</g>
<g>
</g>
<g>
</g>
<g>
</g>
<g>
</g>
<g>
</g>
</svg>
