<?xml version="1.0" encoding="iso-8859-1"?>
<!-- Generator: Adobe Illustrator 18.0.0, SVG Export Plug-In . SVG Version: 6.00 Build 0)  -->
<!DOCTYPE svg PUBLIC "-//W3C//DTD SVG 1.1//EN" "http://www.w3.org/Graphics/SVG/1.1/DTD/svg11.dtd">
<svg version="1.1" id="Capa_1" xmlns="http://www.w3.org/2000/svg" xmlns:xlink="http://www.w3.org/1999/xlink" x="0px" y="0px"
	 viewBox="0 0 60 60" style="enable-background:new 0 0 60 60;" xml:space="preserve">
<g>
	<path d="M33.87,0.258c-0.004,0-0.008-0.003-0.012-0.003c-0.019-0.002-0.037-0.003-0.056-0.005c-0.59-0.075-1.184-0.134-1.784-0.174
		c-0.058-0.004-0.117-0.01-0.175-0.013C31.233,0.025,30.619,0,30,0C13.458,0,0,13.458,0,30c0,14.016,9.455,25.721,22.468,29.041
		c0.029,0.007,0.057,0.015,0.085,0.022c0.37,0.093,0.743,0.179,1.118,0.259c0.179,0.039,0.359,0.076,0.539,0.112
		c0.232,0.045,0.465,0.086,0.698,0.125c0.308,0.053,0.618,0.102,0.93,0.146c0.119,0.016,0.238,0.031,0.358,0.046
		c0.41,0.052,0.821,0.097,1.236,0.132c0.04,0.003,0.079,0.006,0.119,0.009c0.474,0.039,0.952,0.066,1.432,0.083
		c0.002,0,0.005,0,0.007,0c0.011,0.001,0.022,0.001,0.033,0.001c0.001,0,0.001,0,0.001,0C29.35,59.986,29.673,60,30,60
		c16.542,0,30-13.458,30-30C60,14.77,48.589,2.164,33.87,0.258z M30,2c0.974,0,1.984,0.057,3.015,0.169l1.003,2.596
		c0.054,0.139,5.453,14.067,11.865,25.078c1.97,3.382,2.381,6.293,1.224,8.652c-1.818,3.707-7.089,5.328-9.916,5.702l-0.285,0.037
		c-3.114,0.41-6.333,0.833-8.024,3.047c-1.01,1.322-1.348,3.083-1.034,5.384c0.128,0.93,0.27,2.156,0.241,3.396l-0.041,1.864
		c-0.011-0.001-0.023-0.002-0.034-0.003c-0.425-0.03-0.846-0.069-1.265-0.117c-0.082-0.01-0.163-0.021-0.245-0.031
		c-0.344-0.042-0.686-0.09-1.026-0.144c-0.218-0.036-0.434-0.076-0.65-0.116c-0.194-0.036-0.389-0.071-0.582-0.111
		C12.047,54.844,2.746,44.325,2.045,31.551c-0.002-0.041-0.007-0.081-0.009-0.123C2.012,30.955,2,30.479,2,30
		C2,14.561,14.561,2,30,2z M30.046,57.999l0.042-1.892c0.031-1.38-0.122-2.709-0.259-3.712c-0.238-1.746-0.028-3.021,0.642-3.899
		c1.187-1.553,3.862-1.905,6.695-2.277l0.286-0.038c4.002-0.528,9.401-2.628,11.45-6.804c1.47-2.998,1.036-6.543-1.291-10.539
		C41.28,17.966,35.937,4.183,35.883,4.044l-0.594-1.536C48.208,4.989,58,16.369,58,30C58,45.424,45.464,57.974,30.046,57.999z"/>
	<path d="M26.234,41.411c7.792-1.434,10.973-1.364,12.219-1.17c-0.763,0.323-1.998,0.561-2.811,0.19
		c-0.505-0.229-1.096-0.007-1.325,0.495c-0.229,0.503-0.007,1.096,0.495,1.325c0.561,0.255,1.207,0.367,1.866,0.367
		c1.521,0,3.11-0.598,3.863-1.408c0.521-0.562,0.64-1.247,0.316-1.834c-0.366-0.667-1.339-2.443-14.985,0.067
		c-5.723,1.055-9.506,0.521-10.944-1.535c-1.927-2.753,0.431-8.079,1.501-9.898c0.28-0.476,0.122-1.089-0.354-1.369
		c-0.48-0.281-1.089-0.121-1.369,0.353c-0.184,0.313-4.474,7.688-1.42,12.059C15.235,41.841,19.593,42.633,26.234,41.411z"/>
</g>
<g>
</g>
<g>
</g>
<g>
</g>
<g>
</g>
<g>
</g>
<g>
</g>
<g>
</g>
<g>
</g>
<g>
</g>
<g>
</g>
<g>
</g>
<g>
</g>
<g>
</g>
<g>
</g>
<g>
</g>
</svg>
