<?xml version="1.0" encoding="iso-8859-1"?>
<!-- Generator: Adobe Illustrator 19.0.0, SVG Export Plug-In . SVG Version: 6.00 Build 0)  -->
<svg version="1.1" id="Capa_1" xmlns="http://www.w3.org/2000/svg" xmlns:xlink="http://www.w3.org/1999/xlink" x="0px" y="0px"
	 viewBox="0 0 512.001 512.001" style="enable-background:new 0 0 512.001 512.001;" xml:space="preserve">
<g>
	<g>
		<path d="M361.034,393.384h-19.591c-2.924,0-4.776,1.852-4.776,3.899h-0.001v63.356c0,2.632,3.119,3.996,6.335,3.996
			c3.119,0,6.336-1.364,6.336-3.996v-22.613h10.917c12.867,0,22.906-6.14,22.906-22.126v-0.585
			C383.16,399.331,373.413,393.384,361.034,393.384z M370.49,416.876c0,7.603-3.899,11.209-10.235,11.209h-10.917v-23.588h10.917
			c6.336,0,10.235,3.606,10.235,11.209V416.876z"/>
	</g>
</g>
<g>
	<g>
		<path d="M511.954,476.046l-4.569-74.761c-2.079-32.69-23.353-60.857-54.213-71.764l-63.294-22.232l-36.677-12.884
			c-0.003-0.001-0.005-0.002-0.008-0.003l-2.375-0.834l-17.469-6.136c-3.635-1.277-7.45-1.865-11.246-1.779
			c-4.882,0.108-9.733,1.332-14.13,3.639c-0.187,0.098-0.385,0.201-0.578,0.302l-0.002-19.476
			c22.101-14.816,39.79-40.265,44.578-65.507c0.046-0.238,0.086-0.475,0.129-0.713c0.143-0.792,0.281-1.583,0.398-2.373
			c0.131-0.873,0.246-1.744,0.344-2.613c0.037-0.337,0.066-0.674,0.099-1.011c0.081-0.825,0.148-1.648,0.198-2.469
			c0.015-0.249,0.032-0.498,0.044-0.747c0.013-0.249,0.034-0.5,0.044-0.748c11.024-0.017,19.987-8.992,19.987-20.019v-24.664
			c0-0.71-0.106-1.393-0.291-2.043c0.067-0.497,0.113-1.001,0.113-1.516v-18.908c0-4.197-2.297-7.859-5.694-9.821V52.975
			c0-23.217-18.889-42.106-42.106-42.106H186.767c-23.217,0-42.106,18.889-42.106,42.106v63.992
			c-3.397,1.961-5.694,5.624-5.694,9.821v18.908c0,0.515,0.047,1.019,0.114,1.516c-0.186,0.65-0.291,1.333-0.291,2.043v24.664
			c0,11.025,8.959,19.997,19.979,20.019c0.011,0.3,0.036,0.603,0.051,0.904c0.012,0.24,0.026,0.481,0.041,0.721
			c0.053,0.866,0.123,1.734,0.209,2.606c0.026,0.269,0.047,0.537,0.076,0.806c0.108,0.977,0.237,1.956,0.386,2.938
			c0.088,0.585,0.194,1.171,0.297,1.756c0.068,0.386,0.135,0.772,0.21,1.159c0.14,0.733,0.289,1.466,0.45,2.199
			c0.016,0.072,0.033,0.143,0.049,0.215c5.435,24.417,22.694,48.735,44.068,63.075l-0.002,19.273
			c-0.192-0.1-0.387-0.202-0.573-0.299c-4.398-2.308-9.25-3.531-14.134-3.639c-3.796-0.086-7.61,0.502-11.245,1.779l-19.756,6.939
			l-0.084,0.03c-0.001,0-0.003,0.001-0.004,0.001l-69.954,24.572c-0.001,0-0.003,0.001-0.004,0.002l-30.035,10.55
			c-30.846,10.902-52.12,39.069-54.2,71.777l-0.553,9.042c-0.25,4.094,2.866,7.616,6.96,7.866c4.09,0.258,7.615-2.866,7.866-6.96
			l0.552-9.024c1.701-26.742,19.099-49.782,44.311-58.693l20.137-7.073v149.82H23.583c-2.432,0-4.69-0.978-6.357-2.755
			c-1.674-1.784-2.51-4.113-2.354-6.575l1.06-17.339c0.25-4.094-2.866-7.616-6.96-7.866c-4.088-0.258-7.615,2.865-7.866,6.96
			l-1.059,17.321c-0.412,6.488,1.901,12.925,6.347,17.664c4.44,4.731,10.704,7.443,17.188,7.443h464.835
			c6.484,0,12.748-2.713,17.188-7.443C510.053,488.952,512.366,482.514,511.954,476.046z M307.974,305.958
			c0.513-0.253,1.014-0.501,1.503-0.746c0.092-0.046,0.192-0.095,0.283-0.141c0.004-0.002,0.008-0.005,0.012-0.007
			c1.893-0.948,3.61-1.831,5.116-2.621c2.606-1.368,5.508-2.022,8.399-1.943c1.735,0.049,3.466,0.362,5.127,0.945l11.396,4
			l-26.324,45.434c-5.675-3.534-15.464-10.468-26.551-18.66c-0.041-0.032-0.074-0.07-0.116-0.1
			c-5.337-3.949-10.526-7.858-14.872-11.159c0.944-0.318,1.879-0.64,2.809-0.965c0.216-0.076,0.432-0.15,0.647-0.226
			c11.681-4.121,22.261-8.805,30.565-12.832c0.142-0.069,0.282-0.137,0.422-0.205C306.927,306.473,307.457,306.213,307.974,305.958z
			 M306.038,363.734l-18.931,32.673l-4.702-31.123l4.226-14.894c6.099,4.412,11.222,7.991,15.264,10.656
			C303.328,361.992,304.707,362.902,306.038,363.734z M241.385,338.568c0.619-0.464,1.232-0.925,1.835-1.379
			c0.357-0.269,0.706-0.532,1.057-0.797c0.263-0.198,0.523-0.395,0.783-0.591c4.335-3.272,8.15-6.184,10.942-8.326
			c0.18,0.138,0.388,0.297,0.576,0.442c0.14,0.107,0.281,0.216,0.425,0.326c0.449,0.344,0.919,0.703,1.41,1.079
			c0.108,0.082,0.217,0.166,0.327,0.249c0.493,0.377,1.002,0.765,1.532,1.169c0.192,0.146,0.385,0.294,0.582,0.443
			c0.447,0.34,0.901,0.686,1.371,1.043c0.314,0.239,0.633,0.481,0.957,0.727c0.373,0.283,0.748,0.567,1.132,0.859
			c0.495,0.375,0.998,0.756,1.51,1.143c0.188,0.142,0.374,0.282,0.564,0.426c0.663,0.501,1.339,1.011,2.026,1.529
			c0.108,0.081,0.214,0.161,0.322,0.243c1.653,1.245,3.369,2.531,5.12,3.838l-4.649,16.384h-26.046l-3.733-13.157l-0.98-3.453
			c0.028-0.021,0.055-0.041,0.082-0.062c0.796-0.594,1.584-1.184,2.361-1.767C241.058,338.814,241.22,338.692,241.385,338.568z
			 M218.611,296.437c0.549-1.442,0.846-3.004,0.846-4.624l0.001-13.491c3.1,1.274,6.241,2.339,9.409,3.138
			c11.481,2.895,19.065,4.337,26.666,4.337c7.514,0,15.044-1.411,26.359-4.225l0.982-0.245c3.255-0.809,6.482-1.895,9.665-3.204
			l0.001,13.688c0,1.622,0.297,3.183,0.847,4.626c-10.063,4.605-22.756,9.752-36.135,13.53c-0.109,0.031-0.217,0.062-0.326,0.092
			c-0.308,0.086-0.617,0.17-0.925,0.255c-0.333-0.092-0.667-0.182-0.999-0.275c-0.048-0.014-0.097-0.027-0.145-0.041
			C241.436,306.218,228.701,301.054,218.611,296.437z M243.937,372.23h24.495l6.76,44.741l-17.15,29.599
			c-0.427,0.738-1.02,1.053-1.531,1.184c-0.256,0.066-0.493,0.088-0.677,0.088c0,0-0.001,0-0.002,0
			c-0.344,0-0.871-0.065-1.374-0.385c-0.302-0.192-0.595-0.475-0.835-0.891l-16.576-28.721L243.937,372.23z M358.359,173.918
			c0,2.822-2.277,5.116-5.089,5.158v-22.041h5.089V173.918z M159.514,76.278h30.142c4.102,0,7.427-3.325,7.427-7.427
			c0-4.102-3.325-7.427-7.427-7.427h-30.142v-8.45c0-15.027,12.226-27.253,27.253-27.253h138.467
			c15.027,0,27.253,12.226,27.253,27.253v8.45H238.878c-4.102,0-7.427,3.325-7.427,7.427s3.325,7.427,7.427,7.427h113.609v12.021
			H159.514V76.278z M159.514,103.152h192.973v12.294H159.514V103.152z M158.731,179.076c-2.812-0.042-5.089-2.336-5.089-5.158
			v-16.883h5.089V179.076z M153.82,141.827v-11.528h204.361v11.528H153.82z M173.94,197.571c-0.012-0.108-0.024-0.215-0.036-0.323
			c-0.093-0.843-0.164-1.683-0.216-2.52c-0.007-0.111-0.017-0.222-0.023-0.333c-0.052-0.932-0.082-1.86-0.082-2.781v-34.58h164.833
			v34.383c0,0.92-0.03,1.848-0.082,2.779c-0.007,0.122-0.017,0.245-0.025,0.367c-0.051,0.818-0.121,1.639-0.211,2.464
			c-0.014,0.134-0.029,0.267-0.045,0.401c-3.422,29.369-30.85,62.543-58.768,69.484l-0.982,0.245
			c-20.296,5.046-25.434,5.035-45.807-0.102C204.672,260.041,177.332,226.862,173.94,197.571z M183.591,301.445
			c1.66-0.583,3.391-0.896,5.126-0.945c2.89-0.078,5.791,0.577,8.396,1.943c1.504,0.789,3.22,1.671,5.11,2.618
			c0.006,0.003,0.011,0.007,0.016,0.01c0.124,0.062,0.259,0.128,0.385,0.191c0.415,0.207,0.839,0.417,1.271,0.63
			c0.582,0.288,1.179,0.579,1.787,0.875c0.101,0.049,0.201,0.098,0.303,0.147c8.305,4.029,18.893,8.718,30.584,12.844
			c0.274,0.097,0.55,0.192,0.824,0.288c0.883,0.308,1.769,0.613,2.663,0.914c-4.257,3.233-9.311,7.04-14.571,10.935
			c-0.042,0.031-0.076,0.07-0.117,0.102c-11.264,8.328-21.226,15.389-26.94,18.938l-26.252-45.484L183.591,301.445z
			 M229.965,365.283l-4.825,31.934l-19.286-33.415c1.365-0.851,2.781-1.784,4.254-2.756c4.107-2.709,9.337-6.365,15.567-10.877
			l3.917,13.805L229.965,365.283z M98.741,486.281V331.243l59.176-20.786l28.054,48.608l2.897,5.019l34.014,58.934l17.876,30.973
			c0.879,1.523,1.958,2.867,3.186,4.024c3.163,2.98,7.345,4.677,11.873,4.681h0.001c0.005,0,0.01,0,0.015,0
			c2.67,0,5.219-0.591,7.513-1.683c0.067-0.032,0.137-0.059,0.204-0.092c0.941-0.463,1.835-1.017,2.677-1.646
			c0.057-0.043,0.117-0.081,0.173-0.124c0.046-0.035,0.089-0.075,0.134-0.11c1.723-1.349,3.208-3.039,4.359-5.025l51.504-88.892
			c0.273-0.327,0.524-0.671,0.737-1.04l30.95-53.626l20.899,7.341l38.275,13.445v155.037H98.741z M494.775,483.526
			c-1.667,1.776-3.925,2.755-6.357,2.755h-60.305v-149.82l20.124,7.069c25.226,8.915,42.624,31.956,44.324,58.679l4.569,74.761
			C497.286,479.413,496.449,481.742,494.775,483.526z"/>
	</g>
</g>
<g>
</g>
<g>
</g>
<g>
</g>
<g>
</g>
<g>
</g>
<g>
</g>
<g>
</g>
<g>
</g>
<g>
</g>
<g>
</g>
<g>
</g>
<g>
</g>
<g>
</g>
<g>
</g>
<g>
</g>
</svg>
